<svg width="627" height="144" viewBox="0 0 627 144" fill="none" xmlns="http://www.w3.org/2000/svg">
<g filter="url(#filter0_d_790_1193)">
<path d="M90.8945 133.598L64.8184 100H127.455L100.306 133.685C97.876 136.7 93.2688 136.657 90.8945 133.598Z" fill="white"/>
<rect x="8" y="8" width="611" height="92" rx="21" fill="white"/>
</g>
<path d="M41.8962 61H35.2002V43.264H42.0402C44.6642 43.264 46.7282 44.064 48.2322 45.664C49.7362 47.232 50.4882 49.4 50.4882 52.168C50.4882 54.888 49.7202 57.04 48.1842 58.624C46.6802 60.208 44.5842 61 41.8962 61ZM38.4642 46.408V57.856H42.0162C43.6002 57.856 44.8402 57.312 45.7362 56.224C46.6322 55.136 47.0802 53.76 47.0802 52.096C47.0802 50.464 46.6402 49.112 45.7602 48.04C44.8642 46.952 43.6242 46.408 42.0402 46.408H38.4642ZM52.4226 54.472C52.4226 52.552 53.0706 50.936 54.3666 49.624C55.6946 48.296 57.3666 47.632 59.3826 47.632C61.4146 47.632 63.0786 48.296 64.3746 49.624C65.6866 50.936 66.3426 52.552 66.3426 54.472C66.3426 56.424 65.6866 58.056 64.3746 59.368C63.0786 60.68 61.4146 61.336 59.3826 61.336C57.3506 61.336 55.6786 60.68 54.3666 59.368C53.0706 58.056 52.4226 56.424 52.4226 54.472ZM63.1986 54.472C63.1986 53.368 62.8306 52.44 62.0946 51.688C61.3426 50.92 60.4386 50.536 59.3826 50.536C58.3266 50.536 57.4226 50.92 56.6706 51.688C55.9346 52.44 55.5666 53.368 55.5666 54.472C55.5666 55.592 55.9346 56.528 56.6706 57.28C57.4226 58.048 58.3266 58.432 59.3826 58.432C60.4386 58.432 61.3426 58.048 62.0946 57.28C62.8306 56.528 63.1986 55.592 63.1986 54.472ZM74.2078 60.976H71.4958L67.0558 47.968H70.3198L73.0558 56.8L76.1518 47.968H78.3358L81.5038 56.8L84.1678 47.968H87.4318L83.0638 60.976H80.3518L77.2558 52.456L74.2078 60.976ZM92.3798 61H89.2598V47.968H92.3318V49.792C92.6838 49.12 93.2198 48.592 93.9398 48.208C94.6598 47.824 95.4918 47.632 96.4358 47.632C97.8598 47.632 99.0678 48.104 100.06 49.048C101.052 49.992 101.548 51.328 101.548 53.056V61H98.4038V53.92C98.4038 52.848 98.1478 52.008 97.6358 51.4C97.1238 50.792 96.4278 50.488 95.5478 50.488C94.6198 50.488 93.8598 50.816 93.2678 51.472C92.6758 52.112 92.3798 52.944 92.3798 53.968V61ZM107.661 42.76V61H104.541V42.76H107.661ZM110.126 54.472C110.126 52.552 110.774 50.936 112.07 49.624C113.398 48.296 115.07 47.632 117.086 47.632C119.118 47.632 120.782 48.296 122.078 49.624C123.39 50.936 124.046 52.552 124.046 54.472C124.046 56.424 123.39 58.056 122.078 59.368C120.782 60.68 119.118 61.336 117.086 61.336C115.054 61.336 113.382 60.68 112.07 59.368C110.774 58.056 110.126 56.424 110.126 54.472ZM120.902 54.472C120.902 53.368 120.534 52.44 119.798 51.688C119.046 50.92 118.142 50.536 117.086 50.536C116.03 50.536 115.126 50.92 114.374 51.688C113.638 52.44 113.27 53.368 113.27 54.472C113.27 55.592 113.638 56.528 114.374 57.28C115.126 58.048 116.03 58.432 117.086 58.432C118.142 58.432 119.046 58.048 119.798 57.28C120.534 56.528 120.902 55.592 120.902 54.472ZM136.51 49.624V47.968H139.486V61H136.51V59.392C135.374 60.672 133.958 61.312 132.262 61.312C130.39 61.312 128.846 60.656 127.63 59.344C126.414 58.032 125.806 56.392 125.806 54.424C125.806 52.456 126.414 50.84 127.63 49.576C128.862 48.296 130.406 47.656 132.262 47.656C133.926 47.656 135.342 48.312 136.51 49.624ZM136.582 54.472C136.582 53.368 136.222 52.432 135.502 51.664C134.782 50.896 133.862 50.512 132.742 50.512C131.622 50.512 130.702 50.896 129.982 51.664C129.278 52.448 128.926 53.384 128.926 54.472C128.926 55.576 129.278 56.52 129.982 57.304C130.702 58.072 131.622 58.456 132.742 58.456C133.862 58.456 134.782 58.072 135.502 57.304C136.222 56.536 136.582 55.592 136.582 54.472ZM152.538 49.624V42.76H155.658V61H152.61V59.296C151.522 60.64 150.138 61.312 148.458 61.312C146.586 61.312 145.042 60.664 143.826 59.368C142.594 58.04 141.978 56.408 141.978 54.472C141.978 52.568 142.594 50.952 143.826 49.624C145.074 48.312 146.61 47.656 148.434 47.656C150.098 47.656 151.466 48.312 152.538 49.624ZM148.89 58.456C150.026 58.456 150.946 58.072 151.65 57.304C152.354 56.52 152.706 55.576 152.706 54.472C152.706 53.368 152.346 52.432 151.626 51.664C150.938 50.896 150.026 50.512 148.89 50.512C147.754 50.512 146.842 50.896 146.154 51.664C145.45 52.448 145.098 53.384 145.098 54.472C145.098 55.576 145.45 56.52 146.154 57.304C146.842 58.072 147.754 58.456 148.89 58.456ZM174.783 49.624V47.968H177.759V61H174.783V59.392C173.647 60.672 172.231 61.312 170.535 61.312C168.663 61.312 167.119 60.656 165.903 59.344C164.687 58.032 164.079 56.392 164.079 54.424C164.079 52.456 164.687 50.84 165.903 49.576C167.135 48.296 168.679 47.656 170.535 47.656C172.199 47.656 173.615 48.312 174.783 49.624ZM174.855 54.472C174.855 53.368 174.495 52.432 173.775 51.664C173.055 50.896 172.135 50.512 171.015 50.512C169.895 50.512 168.975 50.896 168.255 51.664C167.551 52.448 167.199 53.384 167.199 54.472C167.199 55.576 167.551 56.52 168.255 57.304C168.975 58.072 169.895 58.456 171.015 58.456C172.135 58.456 173.055 58.072 173.775 57.304C174.495 56.536 174.855 55.592 174.855 54.472ZM188.315 47.656C190.155 47.656 191.691 48.32 192.923 49.648C194.139 50.96 194.747 52.568 194.747 54.472C194.747 56.392 194.131 58.016 192.899 59.344C191.683 60.656 190.147 61.312 188.291 61.312C186.627 61.312 185.227 60.664 184.091 59.368V66.352H180.947V47.968H184.067V49.696C185.187 48.336 186.603 47.656 188.315 47.656ZM184.019 54.496C184.019 55.6 184.371 56.544 185.075 57.328C185.779 58.08 186.691 58.456 187.811 58.456C188.931 58.456 189.843 58.08 190.547 57.328C191.251 56.544 191.603 55.6 191.603 54.496C191.603 53.376 191.251 52.44 190.547 51.688C189.843 50.92 188.931 50.536 187.811 50.536C186.691 50.536 185.779 50.92 185.075 51.688C184.371 52.472 184.019 53.408 184.019 54.496ZM204.581 47.656C206.421 47.656 207.957 48.32 209.189 49.648C210.405 50.96 211.013 52.568 211.013 54.472C211.013 56.392 210.397 58.016 209.165 59.344C207.949 60.656 206.413 61.312 204.557 61.312C202.893 61.312 201.493 60.664 200.357 59.368V66.352H197.213V47.968H200.333V49.696C201.453 48.336 202.869 47.656 204.581 47.656ZM200.285 54.496C200.285 55.6 200.637 56.544 201.341 57.328C202.045 58.08 202.957 58.456 204.077 58.456C205.197 58.456 206.109 58.08 206.813 57.328C207.517 56.544 207.869 55.6 207.869 54.496C207.869 53.376 207.517 52.44 206.813 51.688C206.109 50.92 205.197 50.536 204.077 50.536C202.957 50.536 202.045 50.92 201.341 51.688C200.637 52.472 200.285 53.408 200.285 54.496ZM229.416 49.624V47.968H232.392V61H229.416V59.392C228.28 60.672 226.864 61.312 225.168 61.312C223.296 61.312 221.752 60.656 220.536 59.344C219.32 58.032 218.712 56.392 218.712 54.424C218.712 52.456 219.32 50.84 220.536 49.576C221.768 48.296 223.312 47.656 225.168 47.656C226.832 47.656 228.248 48.312 229.416 49.624ZM229.488 54.472C229.488 53.368 229.128 52.432 228.408 51.664C227.688 50.896 226.768 50.512 225.648 50.512C224.528 50.512 223.608 50.896 222.888 51.664C222.184 52.448 221.832 53.384 221.832 54.472C221.832 55.576 222.184 56.52 222.888 57.304C223.608 58.072 224.528 58.456 225.648 58.456C226.768 58.456 227.688 58.072 228.408 57.304C229.128 56.536 229.488 55.592 229.488 54.472ZM238.7 61H235.58V47.968H238.652V49.792C239.004 49.12 239.54 48.592 240.26 48.208C240.98 47.824 241.812 47.632 242.756 47.632C244.18 47.632 245.388 48.104 246.38 49.048C247.372 49.992 247.868 51.328 247.868 53.056V61H244.724V53.92C244.724 52.848 244.468 52.008 243.956 51.4C243.444 50.792 242.748 50.488 241.868 50.488C240.94 50.488 240.18 50.816 239.588 51.472C238.996 52.112 238.7 52.944 238.7 53.968V61ZM260.725 49.624V42.76H263.845V61H260.797V59.296C259.709 60.64 258.325 61.312 256.645 61.312C254.773 61.312 253.229 60.664 252.013 59.368C250.781 58.04 250.165 56.408 250.165 54.472C250.165 52.568 250.781 50.952 252.013 49.624C253.261 48.312 254.797 47.656 256.621 47.656C258.285 47.656 259.653 48.312 260.725 49.624ZM257.077 58.456C258.213 58.456 259.133 58.072 259.837 57.304C260.541 56.52 260.893 55.576 260.893 54.472C260.893 53.368 260.533 52.432 259.813 51.664C259.125 50.896 258.213 50.512 257.077 50.512C255.941 50.512 255.029 50.896 254.341 51.664C253.637 52.448 253.285 53.384 253.285 54.472C253.285 55.576 253.637 56.52 254.341 57.304C255.029 58.072 255.941 58.456 257.077 58.456ZM288.563 47.608C290.099 47.608 291.363 48.104 292.355 49.096C293.347 50.088 293.843 51.44 293.843 53.152V61H290.699V53.728C290.699 52.688 290.451 51.888 289.955 51.328C289.475 50.768 288.819 50.488 287.987 50.488C287.107 50.488 286.387 50.792 285.827 51.4C285.267 52.008 284.987 52.816 284.987 53.824V61H281.867V53.752C281.867 52.744 281.611 51.952 281.099 51.376C280.603 50.784 279.939 50.488 279.107 50.488C278.227 50.488 277.499 50.8 276.923 51.424C276.363 52.032 276.083 52.84 276.083 53.848V61H272.963V47.968H276.035V49.84C276.403 49.152 276.939 48.608 277.643 48.208C278.363 47.808 279.147 47.608 279.995 47.608C280.875 47.624 281.659 47.832 282.347 48.232C283.035 48.632 283.547 49.2 283.883 49.936C284.347 49.2 284.995 48.632 285.827 48.232C286.659 47.816 287.571 47.608 288.563 47.608ZM306.877 49.624V47.968H309.853V61H306.877V59.392C305.741 60.672 304.325 61.312 302.629 61.312C300.757 61.312 299.213 60.656 297.997 59.344C296.781 58.032 296.173 56.392 296.173 54.424C296.173 52.456 296.781 50.84 297.997 49.576C299.229 48.296 300.773 47.656 302.629 47.656C304.293 47.656 305.709 48.312 306.877 49.624ZM306.949 54.472C306.949 53.368 306.589 52.432 305.869 51.664C305.149 50.896 304.229 50.512 303.109 50.512C301.989 50.512 301.069 50.896 300.349 51.664C299.645 52.448 299.293 53.384 299.293 54.472C299.293 55.576 299.645 56.52 300.349 57.304C301.069 58.072 301.989 58.456 303.109 58.456C304.229 58.456 305.149 58.072 305.869 57.304C306.589 56.536 306.949 55.592 306.949 54.472ZM325.473 61H321.585L317.121 55.312L316.161 56.176V61H313.041V42.76H316.161V52.624L321.177 47.968H325.161L319.281 53.344L325.473 61ZM338.483 54.208C338.483 54.624 338.451 55.088 338.387 55.6H328.451C328.659 56.528 329.099 57.264 329.771 57.808C330.459 58.336 331.347 58.6 332.435 58.6C334.019 58.6 335.451 58.152 336.731 57.256L337.979 59.488C336.363 60.688 334.475 61.288 332.315 61.288C331.131 61.288 330.075 61.096 329.147 60.712C328.235 60.328 327.499 59.816 326.939 59.176C326.379 58.52 325.955 57.8 325.667 57.016C325.395 56.216 325.259 55.368 325.259 54.472C325.259 52.488 325.883 50.864 327.131 49.6C328.395 48.304 330.027 47.656 332.027 47.656C333.899 47.656 335.443 48.248 336.659 49.432C337.875 50.6 338.483 52.192 338.483 54.208ZM332.027 50.272C331.115 50.272 330.339 50.536 329.699 51.064C329.075 51.592 328.659 52.312 328.451 53.224H335.411C335.283 52.312 334.907 51.592 334.283 51.064C333.675 50.536 332.923 50.272 332.027 50.272ZM352.177 56.776L355.273 47.968H358.681L353.401 61.84C352.761 63.456 352.017 64.64 351.169 65.392C350.337 66.16 349.313 66.544 348.097 66.544C347.105 66.544 346.305 66.336 345.697 65.92L346.201 63.28C346.809 63.568 347.361 63.712 347.857 63.712C348.913 63.712 349.761 63.008 350.401 61.6L350.713 60.88L345.025 47.968H348.649L352.177 56.776ZM359.219 54.472C359.219 52.552 359.867 50.936 361.163 49.624C362.491 48.296 364.163 47.632 366.179 47.632C368.211 47.632 369.875 48.296 371.171 49.624C372.483 50.936 373.139 52.552 373.139 54.472C373.139 56.424 372.483 58.056 371.171 59.368C369.875 60.68 368.211 61.336 366.179 61.336C364.147 61.336 362.475 60.68 361.163 59.368C359.867 58.056 359.219 56.424 359.219 54.472ZM369.995 54.472C369.995 53.368 369.627 52.44 368.891 51.688C368.139 50.92 367.235 50.536 366.179 50.536C365.123 50.536 364.219 50.92 363.467 51.688C362.731 52.44 362.363 53.368 362.363 54.472C362.363 55.592 362.731 56.528 363.467 57.28C364.219 58.048 365.123 58.432 366.179 58.432C367.235 58.432 368.139 58.048 368.891 57.28C369.627 56.528 369.995 55.592 369.995 54.472ZM381.308 61.312C379.484 61.312 378.044 60.808 376.988 59.8C375.948 58.776 375.428 57.36 375.428 55.552V47.968H378.572V55.552C378.572 56.432 378.812 57.136 379.292 57.664C379.788 58.192 380.46 58.456 381.308 58.456C382.172 58.456 382.844 58.192 383.324 57.664C383.82 57.136 384.068 56.432 384.068 55.552V47.968H387.212V55.552C387.212 57.36 386.684 58.776 385.628 59.8C384.588 60.808 383.148 61.312 381.308 61.312ZM393.341 61H390.221V47.968H393.221V49.768C394.021 48.344 395.229 47.632 396.845 47.632C397.389 47.632 397.909 47.72 398.405 47.896L398.141 50.896C397.581 50.72 397.077 50.632 396.629 50.632C395.621 50.632 394.821 50.976 394.229 51.664C393.637 52.336 393.341 53.328 393.341 54.64V61ZM408.528 61H405.408V42.76H408.456V49.648C408.84 49.04 409.4 48.552 410.136 48.184C410.872 47.816 411.688 47.632 412.584 47.632C413.976 47.632 415.168 48.104 416.16 49.048C417.152 49.992 417.648 51.328 417.648 53.056V61H414.528V53.896C414.528 52.824 414.272 51.992 413.76 51.4C413.248 50.792 412.552 50.488 411.672 50.488C410.744 50.488 409.984 50.808 409.392 51.448C408.816 52.088 408.528 52.92 408.528 53.944V61ZM419.946 54.472C419.946 52.552 420.594 50.936 421.89 49.624C423.218 48.296 424.89 47.632 426.906 47.632C428.938 47.632 430.602 48.296 431.898 49.624C433.21 50.936 433.866 52.552 433.866 54.472C433.866 56.424 433.21 58.056 431.898 59.368C430.602 60.68 428.938 61.336 426.906 61.336C424.874 61.336 423.202 60.68 421.89 59.368C420.594 58.056 419.946 56.424 419.946 54.472ZM430.722 54.472C430.722 53.368 430.354 52.44 429.618 51.688C428.866 50.92 427.962 50.536 426.906 50.536C425.85 50.536 424.946 50.92 424.194 51.688C423.458 52.44 423.09 53.368 423.09 54.472C423.09 55.592 423.458 56.528 424.194 57.28C424.946 58.048 425.85 58.432 426.906 58.432C427.962 58.432 428.866 58.048 429.618 57.28C430.354 56.528 430.722 55.592 430.722 54.472ZM451.922 47.608C453.458 47.608 454.722 48.104 455.714 49.096C456.706 50.088 457.202 51.44 457.202 53.152V61H454.058V53.728C454.058 52.688 453.81 51.888 453.314 51.328C452.834 50.768 452.178 50.488 451.346 50.488C450.466 50.488 449.746 50.792 449.186 51.4C448.626 52.008 448.346 52.816 448.346 53.824V61H445.226V53.752C445.226 52.744 444.97 51.952 444.458 51.376C443.962 50.784 443.298 50.488 442.466 50.488C441.586 50.488 440.858 50.8 440.282 51.424C439.722 52.032 439.442 52.84 439.442 53.848V61H436.322V47.968H439.394V49.84C439.762 49.152 440.298 48.608 441.002 48.208C441.722 47.808 442.506 47.608 443.354 47.608C444.234 47.624 445.018 47.832 445.706 48.232C446.394 48.632 446.906 49.2 447.242 49.936C447.706 49.2 448.354 48.632 449.186 48.232C450.018 47.816 450.93 47.608 451.922 47.608ZM472.757 54.208C472.757 54.624 472.725 55.088 472.661 55.6H462.725C462.933 56.528 463.373 57.264 464.045 57.808C464.733 58.336 465.621 58.6 466.709 58.6C468.293 58.6 469.725 58.152 471.005 57.256L472.253 59.488C470.637 60.688 468.749 61.288 466.589 61.288C465.405 61.288 464.349 61.096 463.421 60.712C462.509 60.328 461.773 59.816 461.213 59.176C460.653 58.52 460.229 57.8 459.941 57.016C459.669 56.216 459.533 55.368 459.533 54.472C459.533 52.488 460.157 50.864 461.405 49.6C462.669 48.304 464.301 47.656 466.301 47.656C468.173 47.656 469.717 48.248 470.933 49.432C472.149 50.6 472.757 52.192 472.757 54.208ZM466.301 50.272C465.389 50.272 464.613 50.536 463.973 51.064C463.349 51.592 462.933 52.312 462.725 53.224H469.685C469.557 52.312 469.181 51.592 468.557 51.064C467.949 50.536 467.197 50.272 466.301 50.272ZM480.544 60.976H477.832L473.392 47.968H476.656L479.392 56.8L482.488 47.968H484.672L487.84 56.8L490.504 47.968H493.768L489.4 60.976H486.688L483.592 52.456L480.544 60.976ZM494.501 54.472C494.501 52.552 495.149 50.936 496.445 49.624C497.773 48.296 499.445 47.632 501.461 47.632C503.493 47.632 505.157 48.296 506.453 49.624C507.765 50.936 508.421 52.552 508.421 54.472C508.421 56.424 507.765 58.056 506.453 59.368C505.157 60.68 503.493 61.336 501.461 61.336C499.429 61.336 497.757 60.68 496.445 59.368C495.149 58.056 494.501 56.424 494.501 54.472ZM505.277 54.472C505.277 53.368 504.909 52.44 504.173 51.688C503.421 50.92 502.517 50.536 501.461 50.536C500.405 50.536 499.501 50.92 498.749 51.688C498.013 52.44 497.645 53.368 497.645 54.472C497.645 55.592 498.013 56.528 498.749 57.28C499.501 58.048 500.405 58.432 501.461 58.432C502.517 58.432 503.421 58.048 504.173 57.28C504.909 56.528 505.277 55.592 505.277 54.472ZM513.997 61H510.877V47.968H513.877V49.768C514.677 48.344 515.885 47.632 517.501 47.632C518.045 47.632 518.565 47.72 519.061 47.896L518.797 50.896C518.237 50.72 517.733 50.632 517.285 50.632C516.277 50.632 515.477 50.976 514.885 51.664C514.293 52.336 513.997 53.328 513.997 54.64V61ZM533.223 61H529.335L524.871 55.312L523.911 56.176V61H520.791V42.76H523.911V52.624L528.927 47.968H532.911L527.031 53.344L533.223 61ZM552.632 54.208C552.632 54.624 552.6 55.088 552.536 55.6H542.6C542.808 56.528 543.248 57.264 543.92 57.808C544.608 58.336 545.496 58.6 546.584 58.6C548.168 58.6 549.6 58.152 550.88 57.256L552.128 59.488C550.512 60.688 548.624 61.288 546.464 61.288C545.28 61.288 544.224 61.096 543.296 60.712C542.384 60.328 541.648 59.816 541.088 59.176C540.528 58.52 540.104 57.8 539.816 57.016C539.544 56.216 539.408 55.368 539.408 54.472C539.408 52.488 540.032 50.864 541.28 49.6C542.544 48.304 544.176 47.656 546.176 47.656C548.048 47.656 549.592 48.248 550.808 49.432C552.024 50.6 552.632 52.192 552.632 54.208ZM546.176 50.272C545.264 50.272 544.488 50.536 543.848 51.064C543.224 51.592 542.808 52.312 542.6 53.224H549.56C549.432 52.312 549.056 51.592 548.432 51.064C547.824 50.536 547.072 50.272 546.176 50.272ZM565.065 49.624V47.968H568.041V61H565.065V59.392C563.929 60.672 562.513 61.312 560.817 61.312C558.945 61.312 557.401 60.656 556.185 59.344C554.969 58.032 554.361 56.392 554.361 54.424C554.361 52.456 554.969 50.84 556.185 49.576C557.417 48.296 558.961 47.656 560.817 47.656C562.481 47.656 563.897 48.312 565.065 49.624ZM565.137 54.472C565.137 53.368 564.777 52.432 564.057 51.664C563.337 50.896 562.417 50.512 561.297 50.512C560.177 50.512 559.257 50.896 558.537 51.664C557.833 52.448 557.481 53.384 557.481 54.472C557.481 55.576 557.833 56.52 558.537 57.304C559.257 58.072 560.177 58.456 561.297 58.456C562.417 58.456 563.337 58.072 564.057 57.304C564.777 56.536 565.137 55.592 565.137 54.472ZM575.429 61.336C573.173 61.336 571.421 60.472 570.173 58.744L571.949 56.824C572.381 57.4 572.909 57.856 573.533 58.192C574.173 58.512 574.813 58.672 575.453 58.672C576.013 58.672 576.469 58.544 576.821 58.288C577.189 58.016 577.373 57.688 577.373 57.304C577.373 56.792 577.045 56.376 576.389 56.056C576.181 55.928 575.653 55.712 574.805 55.408C574.053 55.12 573.501 54.888 573.149 54.712C571.693 53.992 570.965 52.888 570.965 51.4C570.965 50.264 571.397 49.336 572.261 48.616C573.125 47.896 574.269 47.536 575.693 47.536C577.533 47.536 579.021 48.176 580.157 49.456L578.525 51.448C577.677 50.552 576.701 50.104 575.597 50.104C575.117 50.104 574.733 50.224 574.445 50.464C574.157 50.688 574.013 50.976 574.013 51.328C574.013 51.904 574.389 52.328 575.141 52.6C577.045 53.352 578.093 53.784 578.285 53.896C579.757 54.696 580.493 55.8 580.493 57.208C580.493 58.392 580.029 59.376 579.101 60.16C578.173 60.944 576.949 61.336 575.429 61.336ZM588.098 56.776L591.194 47.968H594.602L589.322 61.84C588.682 63.456 587.938 64.64 587.09 65.392C586.258 66.16 585.234 66.544 584.018 66.544C583.026 66.544 582.226 66.336 581.618 65.92L582.122 63.28C582.73 63.568 583.282 63.712 583.778 63.712C584.834 63.712 585.682 63.008 586.322 61.6L586.634 60.88L580.946 47.968H584.57L588.098 56.776Z" fill="black"/>
<defs>
<filter id="filter0_d_790_1193" x="0" y="0" width="627" height="143.919" filterUnits="userSpaceOnUse" color-interpolation-filters="sRGB">
<feFlood flood-opacity="0" result="BackgroundImageFix"/>
<feColorMatrix in="SourceAlpha" type="matrix" values="0 0 0 0 0 0 0 0 0 0 0 0 0 0 0 0 0 0 127 0" result="hardAlpha"/>
<feOffset/>
<feGaussianBlur stdDeviation="4"/>
<feComposite in2="hardAlpha" operator="out"/>
<feColorMatrix type="matrix" values="0 0 0 0 0 0 0 0 0 0 0 0 0 0 0 0 0 0 0.15 0"/>
<feBlend mode="normal" in2="BackgroundImageFix" result="effect1_dropShadow_790_1193"/>
<feBlend mode="normal" in="SourceGraphic" in2="effect1_dropShadow_790_1193" result="shape"/>
</filter>
</defs>
</svg>
