<svg width="64" height="64" viewBox="0 0 64 64" fill="none" xmlns="http://www.w3.org/2000/svg">
<g id="1">
<path id="Vector" d="M28.9952 8.54634C14.3825 8.54634 2.53662 20.3922 2.53662 35.0049C2.53662 49.6175 14.3825 61.4634 28.9952 61.4634L30.4367 35.0049L28.9952 8.54634Z" fill="#F4F4F7"/>
<path id="Vector_2" d="M55.4536 35.0049C55.4536 20.3922 43.6078 8.54634 28.9951 8.54634V61.4634C43.6079 61.4634 55.4536 49.6175 55.4536 35.0049Z" fill="#E2E2EB"/>
<path id="Vector_3" d="M28.9952 16.1342C18.5731 16.1342 10.1245 24.5828 10.1245 35.0048C10.1245 45.4269 18.5731 53.8755 28.9952 53.8755L30.0233 35.0048L28.9952 16.1342Z" fill="#FFD748"/>
<path id="Vector_4" d="M47.866 35.0048C47.866 24.5828 39.4174 16.1342 28.9954 16.1342V53.8756C39.4172 53.8755 47.866 45.4269 47.866 35.0048Z" fill="#FFC335"/>
<path id="Vector_5" d="M28.9951 26.2546C24.1625 26.2546 20.2449 30.1722 20.2449 35.0049C20.2449 39.8375 24.1625 43.7551 28.9951 43.7551L29.4719 35.0049L28.9951 26.2546Z" fill="#FF4C70"/>
<path id="Vector_6" d="M37.7456 35.0049C37.7456 30.1722 33.828 26.2546 28.9954 26.2546V43.7553C33.828 43.7551 37.7456 39.8375 37.7456 35.0049Z" fill="#F21544"/>
<path id="Vector_7" d="M3.75001 35.0048C3.75001 21.0846 15.075 9.75968 28.9953 9.75968L30.2454 7.88468L28.9953 6.00967C21.2504 6.00967 13.969 9.02568 8.49251 14.5022C3.016 19.9786 0 27.2599 0 35.0048C0 42.7497 3.016 50.0311 8.49239 55.5075C13.969 60.984 21.2504 64 28.9953 64L30.2454 62.125L28.9953 60.25C15.075 60.25 3.75001 48.9251 3.75001 35.0048Z" fill="#FFD748"/>
<path id="Vector_8" d="M49.498 14.5022C44.0215 9.02568 36.7402 6.00967 28.9954 6.00967V9.75968C42.9155 9.75968 54.2405 21.0846 54.2405 35.0048C54.2405 48.9251 42.9155 60.25 28.9954 60.25V64C36.7402 64 44.0216 60.984 49.498 55.5075C54.9744 50.031 57.9904 42.7497 57.9904 35.0048C57.9904 27.2599 54.9745 19.9786 49.498 14.5022Z" fill="#FFC335"/>
<path id="Vector_9" d="M56.3169 7.68306L55.7407 1.9368C55.6685 1.21605 55.1875 0.601301 54.5052 0.357926C53.823 0.114676 53.0615 0.285801 52.5494 0.798051L42.5985 10.7491C42.2006 11.1468 42.0025 11.7022 42.0587 12.2619L42.7878 19.5338C42.8323 19.9776 43.0301 20.3749 43.3276 20.6726L51.8349 14.8171L56.3169 7.68306Z" fill="#0EB9FF"/>
<path id="Vector_10" d="M62.0633 8.25919L56.317 7.68306L43.3276 20.6726C43.6253 20.9702 44.0226 21.168 44.4665 21.2125L51.7383 21.9416C51.8008 21.9478 51.8631 21.951 51.9254 21.951C52.42 21.951 52.8978 21.7551 53.251 21.4018L63.202 11.4508C63.7143 10.9386 63.8857 10.1772 63.6422 9.49481C63.3987 8.81244 62.784 8.33156 62.0633 8.25919Z" fill="#17A9FF"/>
<path id="Vector_11" d="M63.4507 0.549188C62.7186 -0.183063 61.5314 -0.183063 60.7991 0.549188L27.6693 33.679C26.9371 34.4112 26.9371 35.5984 27.6693 36.3306L46.8597 18.7145L63.4507 0.549188Z" fill="#015283"/>
<path id="Vector_12" d="M27.6694 36.3306C28.0356 36.6967 28.5154 36.8799 28.9953 36.8799C29.4752 36.8799 29.9551 36.6967 30.3211 36.3307L63.4509 3.20082C64.1831 2.46857 64.1831 1.28145 63.4509 0.549194L27.6694 36.3306Z" fill="#003E67"/>
</g>
</svg>
