<svg width="64" height="64" viewBox="0 0 64 64" fill="none" xmlns="http://www.w3.org/2000/svg">
<g id="3">
<path id="Vector" d="M27.7247 17.4409C27.3594 16.8311 26.6805 16.4809 25.9717 16.5348L10.7349 17.7118C9.19228 17.8311 7.81816 18.6395 6.96467 19.9303L0.570331 29.6017C-0.0767901 30.5806 -0.179789 31.8055 0.294958 32.8785C0.76958 33.9515 1.7452 34.6991 2.90457 34.8787L15.2595 36.7923C15.3556 36.8072 15.4516 36.8146 15.5469 36.8146C16.1797 36.8144 16.7785 36.4936 17.1264 35.9493L27.6959 19.414C28.0788 18.8149 28.0898 18.0509 27.7247 17.4409Z" fill="#E45A6E"/>
<path id="Vector_2" d="M46.559 36.2754C45.949 35.9102 45.1849 35.9213 44.5859 36.3042L28.0508 46.8737C27.4247 47.274 27.094 48.0062 27.2077 48.7406L29.1212 61.0955C29.3008 62.255 30.0485 63.2305 31.1216 63.7053C31.5679 63.9026 32.0404 64 32.5106 64C33.1708 64 33.8266 63.8078 34.3982 63.4299L44.0698 57.0354C45.3606 56.1822 46.1692 54.8079 46.2882 53.2652L47.4652 38.0285C47.52 37.3197 47.169 36.6408 46.559 36.2754Z" fill="#D82E44"/>
<path id="Vector_3" d="M24.1087 51.5345C24.8549 52.2807 25.9153 52.6298 26.9562 52.4557C42.2201 49.9035 54.2986 37.2656 58.897 28.3752C64.003 18.5035 64.1922 8.07161 63.9253 3.17914C63.8338 1.50265 62.4974 0.166283 60.8209 0.0747839C55.9285 -0.191964 45.4967 -0.0028405 35.6249 5.10325C26.7347 9.7016 14.0967 21.7801 11.5445 37.0441C11.3705 38.0849 11.7195 39.1453 12.4657 39.8915L24.1087 51.5345Z" fill="#F1F1FB"/>
<path id="Vector_4" d="M62.9675 1.03265L18.2871 45.713L24.1086 51.5345C24.8548 52.2807 25.9152 52.6297 26.9561 52.4557C42.22 49.9035 54.2985 37.2655 58.8969 28.3754C64.0029 18.5037 64.1921 8.07173 63.9252 3.17927C63.8794 2.34102 63.5225 1.58778 62.9675 1.03265Z" fill="#D7D6FB"/>
<path id="Vector_5" d="M43.8409 29.5296C41.4398 29.5297 39.0397 28.616 37.2118 26.7881C35.4411 25.0175 34.4658 22.6631 34.4658 20.159C34.4658 17.6549 35.4411 15.3005 37.2118 13.5299C40.8669 9.87471 46.8145 9.87458 50.4698 13.5299C52.2406 15.3005 53.2157 17.6549 53.2157 20.159C53.2157 22.6631 52.2406 25.0175 50.4698 26.7881C48.6425 28.6156 46.2412 29.5293 43.8409 29.5296Z" fill="#466288"/>
<path id="Vector_6" d="M11.5445 37.044C11.3705 38.0849 11.7195 39.1453 12.4657 39.8915L24.1087 51.5345C24.8549 52.2807 25.9153 52.6297 26.9562 52.4557C30.2775 51.9003 33.4477 50.8671 36.4232 49.4992L14.501 27.5771C13.1331 30.5525 12.0999 33.7228 11.5445 37.044Z" fill="#466288"/>
<path id="Vector_7" d="M1.91303 52.742C2.39278 52.742 2.87278 52.5589 3.23878 52.1928L9.36041 46.0711C10.0927 45.339 10.0927 44.1518 9.36041 43.4195C8.62829 42.6873 7.44116 42.6873 6.70878 43.4195L0.587274 49.5412C-0.144977 50.2733 -0.144977 51.4605 0.587274 52.1928C0.9534 52.559 1.43315 52.742 1.91303 52.742Z" fill="#FDB43A"/>
<path id="Vector_8" d="M14.9706 49.0297C14.2384 48.2976 13.0512 48.2976 12.3189 49.0297L0.549677 60.799C-0.182574 61.5311 -0.182574 62.7184 0.549677 63.4506C0.915802 63.8168 1.39568 63.9998 1.87555 63.9998C2.35543 63.9998 2.83531 63.8166 3.20131 63.4505L14.9706 51.6812C15.7028 50.9491 15.7028 49.7619 14.9706 49.0297Z" fill="#FDB43A"/>
<path id="Vector_9" d="M20.5806 54.6398C19.8485 53.9077 18.6613 53.9077 17.929 54.6398L11.8075 60.7613C11.0752 61.4934 11.0752 62.6807 11.8075 63.4129C12.1736 63.7791 12.6535 63.9622 13.1332 63.9622C13.613 63.9622 14.093 63.7791 14.459 63.4129L20.5806 57.2913C21.3129 56.5592 21.3129 55.3719 20.5806 54.6398Z" fill="#F57A21"/>
<path id="Vector_10" d="M0.549805 63.4506C0.91593 63.8167 1.39581 63.9997 1.87568 63.9997C2.35556 63.9997 2.83543 63.8166 3.20143 63.4505L14.9707 51.6812C15.703 50.9491 15.703 49.7618 14.9707 49.0296L0.549805 63.4506Z" fill="#F57A21"/>
<path id="Vector_11" d="M18.2871 45.713L24.1086 51.5345C24.8548 52.2807 25.9152 52.6297 26.9561 52.4557C30.2774 51.9003 33.4476 50.8671 36.4231 49.4992L25.4621 38.5382L18.2871 45.713Z" fill="#354A67"/>
<path id="Vector_12" d="M37.2119 26.7881C39.0398 28.616 41.4399 29.5299 43.841 29.5296C46.2414 29.5294 48.6426 28.6155 50.47 26.7881C52.2407 25.0174 53.2158 22.6631 53.2158 20.159C53.2158 17.6549 52.2407 15.3006 50.47 13.53L37.2119 26.7881Z" fill="#354A67"/>
<path id="Vector_13" d="M43.8408 14.5368C42.4005 14.5368 40.9599 15.0851 39.8634 16.1817C38.8011 17.2441 38.2158 18.6566 38.2158 20.1591C38.2158 21.6616 38.8011 23.0741 39.8634 24.1365C42.0566 26.3296 45.6253 26.3297 47.8185 24.1365C48.8808 23.074 49.466 21.6615 49.466 20.159C49.466 18.6565 48.8808 17.244 47.8185 16.1816C46.7218 15.0851 45.2815 14.5368 43.8408 14.5368Z" fill="#4BBEFD"/>
<path id="Vector_14" d="M47.8187 16.1817L39.8638 24.1366C42.0569 26.3297 45.6257 26.3298 47.8187 24.1366C48.881 23.074 49.4662 21.6615 49.4662 20.159C49.4662 18.6565 48.8812 17.244 47.8187 16.1817Z" fill="#0590FB"/>
</g>
</svg>
