<svg width="64" height="64" viewBox="0 0 64 64" fill="none" xmlns="http://www.w3.org/2000/svg">
<g id="2">
<path id="Vector" d="M63.5354 7.51048C63.2222 7.24739 62.7837 7.19728 62.4204 7.3852C59.351 8.97624 56.2817 10.5798 53.2124 12.1834C50.4061 13.6492 43.0648 17.4576 40.3587 18.8733C37.9283 11.6322 30.8876 6.82144 23.1454 7.31003C8.45011 8.27468 1.74768 26.6406 12.5843 36.7005C14.7767 38.7426 16.0044 41.411 16.0671 44.2298C13.8121 45.1443 13.2984 48.4392 15.0774 50.0177C12.7848 52.16 14.3883 56.1814 17.5579 56.1439H18.3973V57.6848C18.3973 59.6517 20.0009 61.2552 21.9677 61.2552H23.5212C24.2854 62.6333 26.34 63.3725 27.6429 63.7107C30.0357 64.3872 32.2657 63.7358 34.5708 63.1971C37.8281 62.4704 40.4214 62.3828 42.3256 62.3201C44.543 62.2449 46.0088 62.1823 46.2844 60.8293C46.5099 59.6642 45.42 58.9501 44.3677 58.2611C43.0648 57.3716 41.4988 56.457 42.9144 55.1541C43.3779 54.628 44.0043 53.9139 44.0545 52.7738C44.1171 51.4083 43.2401 50.5689 42.4634 49.8298C40.5216 48.2137 39.9829 46.0839 40.7471 43.2777L47.6124 36.7882L53.8137 38.0034C54.3148 38.1037 54.8285 37.803 54.9663 37.3144L63.8486 8.58788C63.9739 8.19951 63.8486 7.77356 63.5354 7.51048ZM13.9749 35.2222C4.42865 26.3525 10.3293 10.1664 23.2706 9.32702C30.2236 8.88855 36.5127 13.2608 38.5547 19.8129C31.6894 23.3833 24.2478 27.267 17.37 30.8375L31.7145 33.6562C31.9525 33.9694 33.318 35.7735 33.5811 36.1242C31.6643 38.1913 30.5243 40.9475 30.3865 43.879H18.0966C17.9337 40.6343 16.4805 37.5775 13.9749 35.2222ZM16.468 46.3595C16.7561 46.0714 17.157 45.9085 17.5579 45.9085H30.9127C32.9547 45.9461 32.9422 48.9779 30.9252 49.0029H17.5704C16.2174 49.0405 15.4783 47.2741 16.468 46.3595ZM17.5579 54.1143C15.5284 54.0642 15.5159 51.0826 17.5454 51.0199H30.9001C32.9422 51.0826 32.9422 54.0642 30.9001 54.1143H17.5579ZM21.9677 59.2382C21.1158 59.2382 20.4143 58.5492 20.4143 57.6848V56.1313H28.0438V57.6848C28.0438 58.5367 27.3547 59.2382 26.4903 59.2382H21.9677ZM41.0728 51.2955C42.288 52.4105 42.3256 52.7613 41.3985 53.8262C38.8554 56.5072 41.2231 58.7998 43.6786 60.228C40.722 60.4033 38.4169 60.3031 34.1323 61.2302C31.6268 61.8942 29.0084 62.4454 26.6532 61.2427C28.5449 61.1675 30.0733 59.6016 30.0733 57.6848V56.1313H30.9127C34.0822 56.1689 35.6858 52.1474 33.3932 50.0052C35.2223 48.3891 34.6084 45.1193 32.416 44.2173C32.4787 41.7994 33.3431 39.5068 34.8464 37.7654L38.7677 42.9645C37.8281 46.3094 38.7677 49.3788 41.0728 51.2955ZM40.6343 33.9694C40.6093 34.0321 40.5592 34.0947 40.5341 34.1699C40.5216 34.1949 40.5091 34.2325 40.5091 34.2451C40.4965 34.2826 40.484 34.3202 40.4715 34.3578L39.2938 40.3336C37.8531 38.4294 35.1596 34.8589 33.7315 32.9923L47.8128 23.5587L48.0634 23.3833C45.9838 26.3399 42.7641 30.9502 40.6343 33.9694ZM41.4612 39.8325L42.263 35.7359C42.3882 35.7484 44.9815 36.262 45.182 36.3122L41.4612 39.8325ZM53.3126 35.8486L43.3654 33.8943L43.1775 33.8567C46.3972 29.2715 49.6294 24.6863 52.8491 20.101C53.1247 19.7127 53.0871 19.1489 52.7363 18.8232C52.7238 18.8232 52.7238 18.8232 52.7238 18.8107C52.3855 18.4849 51.8343 18.4223 51.4334 18.6854L32.0652 31.6643L23.421 29.973C35.7986 23.5212 48.8276 16.7561 61.2052 10.3042L53.3126 35.8486Z" fill="#015283"/>
<path id="Vector_2" d="M32.0901 34.1448L33.581 36.1243C31.6642 38.1914 30.5242 40.9475 30.3864 43.879H18.0965C17.9336 40.6343 16.4804 37.5775 13.9748 35.2222C4.4285 26.365 10.3292 10.1664 23.2705 9.32704C30.2235 8.88856 36.5125 13.2608 38.5546 19.8129C31.6893 23.3834 24.2477 27.267 17.3698 30.8375L31.7143 33.6563L32.0901 34.1448Z" fill="#FFE187"/>
<path id="Vector_3" d="M45.182 36.3122L41.4612 39.8451L42.263 35.7484C42.3757 35.7484 44.969 36.2621 45.182 36.3122Z" fill="#E5CFBD"/>
<path id="Vector_4" d="M48.0759 23.3708C45.9837 26.34 42.7515 30.9502 40.6343 33.9569C40.6093 34.0196 40.5592 34.0822 40.5341 34.1574C40.5216 34.1824 40.509 34.22 40.509 34.2325C40.4965 34.2701 40.484 34.3077 40.4715 34.3453L39.2938 40.3211C37.8531 38.4169 35.1596 34.8464 33.7314 32.9797L47.8128 23.5462L48.0759 23.3708Z" fill="#E5CFBD"/>
<path id="Vector_5" d="M32.4537 47.4495C32.4787 48.3014 31.7271 49.0155 30.9002 49.0029H17.5455C15.5034 48.9528 15.5034 45.9712 17.5455 45.9085H30.9002C31.7646 45.9085 32.4537 46.5976 32.4537 47.4495Z" fill="#F21544"/>
<path id="Vector_6" d="M32.4536 52.5734C32.4536 53.4253 31.752 54.1269 30.9001 54.1269H17.5579C16.706 54.1269 16.0044 53.4378 16.0044 52.5734C16.0044 51.7215 16.6934 51.0325 17.5453 51.0199H30.9001C31.7645 51.0199 32.4536 51.7215 32.4536 52.5734Z" fill="#F21544"/>
<path id="Vector_7" d="M28.0438 56.1439V57.6848C28.0438 58.5367 27.3548 59.2383 26.4903 59.2383H21.9678C21.1159 59.2383 20.4143 58.5492 20.4143 57.6848V56.1313H28.0438V56.1439Z" fill="#6BD4E0"/>
<path id="Vector_8" d="M61.2176 10.2917L53.3125 35.8486L43.3653 33.8943L43.1774 33.8567C46.3971 29.2715 49.6293 24.6862 52.849 20.101C53.1246 19.7127 53.087 19.1489 52.7362 18.8232C52.7237 18.8232 52.7237 18.8232 52.7237 18.8107C52.3854 18.4849 51.8342 18.4223 51.4333 18.6854L32.0652 31.6643L23.4209 29.973C35.7985 23.5086 48.8275 16.7561 61.2176 10.2917Z" fill="#EFEAE6"/>
<path id="Vector_9" d="M7.81111 41.6616C8.07419 41.6616 8.32475 41.5614 8.5252 41.3609L10.7677 39.1184C11.1686 38.73 11.1686 38.0786 10.7677 37.6902C10.3668 37.3019 9.72788 37.3019 9.33951 37.6902L7.09702 39.9327C6.44556 40.5341 6.94668 41.6866 7.81111 41.6616Z" fill="#015283"/>
<path id="Vector_10" d="M39.9578 7.08452L37.7153 9.32702C36.7883 10.2791 38.1914 11.6823 39.1435 10.7552L41.386 8.5127C42.3006 7.56058 40.91 6.16998 39.9578 7.08452Z" fill="#015283"/>
<path id="Vector_11" d="M0.995969 23.2205C-0.33199 23.2456 -0.33199 25.2124 0.995969 25.2375H4.17806C4.74182 25.2375 5.19282 24.7865 5.19282 24.2227C5.19282 23.659 4.74182 23.208 4.17806 23.208H0.995969V23.2205Z" fill="#015283"/>
<path id="Vector_12" d="M8.52535 7.08454C7.57323 6.15747 6.17011 7.5606 7.09717 8.51272L9.33967 10.7552C10.2918 11.6823 11.6949 10.2792 10.7679 9.32704C10.7679 9.33956 8.52535 7.08454 8.52535 7.08454Z" fill="#015283"/>
<path id="Vector_13" d="M23.2329 0.995969V4.17806C23.2329 4.74182 23.6839 5.19282 24.2477 5.19282C24.8114 5.19282 25.2624 4.74182 25.2624 4.17806V0.995969C25.2249 -0.33199 23.2454 -0.33199 23.2329 0.995969Z" fill="#015283"/>
</g>
</svg>
