<svg width="145" height="20" viewBox="0 0 145 20" fill="none" xmlns="http://www.w3.org/2000/svg">
<path d="M20.8154 7.55776C20.6788 7.13517 20.304 6.83502 19.8605 6.79506L13.8369 6.24811L11.455 0.673057C11.2794 0.264478 10.8794 0 10.435 0C9.9906 0 9.59062 0.264478 9.41499 0.674012L7.0331 6.24811L1.00855 6.79506C0.565894 6.83598 0.192026 7.13517 0.0546126 7.55776C-0.0828012 7.98035 0.0441035 8.44386 0.37896 8.73605L4.93209 12.7292L3.58948 18.6434C3.49123 19.0782 3.66001 19.5277 4.02082 19.7885C4.21476 19.9287 4.44166 20 4.67048 20C4.86776 20 5.06345 19.9468 5.23908 19.8417L10.435 16.7363L15.629 19.8417C16.0091 20.0704 16.4882 20.0495 16.8482 19.7885C17.2092 19.5269 17.3778 19.0773 17.2796 18.6434L15.937 12.7292L20.4901 8.73684C20.825 8.44386 20.9528 7.98115 20.8154 7.55776Z" fill="#FFC107"/>
<path d="M51.685 7.55776C51.5484 7.13517 51.1736 6.83502 50.7301 6.79506L44.7065 6.24811L42.3247 0.673057C42.149 0.264478 41.749 0 41.3046 0C40.8602 0 40.4603 0.264478 40.2846 0.674012L37.9027 6.24811L31.8782 6.79506C31.4355 6.83598 31.0617 7.13517 30.9242 7.55776C30.7868 7.98035 30.9137 8.44386 31.2486 8.73605L35.8017 12.7292L34.4591 18.6434C34.3609 19.0782 34.5296 19.5277 34.8905 19.7885C35.0844 19.9287 35.3113 20 35.5401 20C35.7374 20 35.9331 19.9468 36.1087 19.8417L41.3046 16.7363L46.4987 19.8417C46.8787 20.0704 47.3579 20.0495 47.7179 19.7885C48.0788 19.5269 48.2475 19.0773 48.1492 18.6434L46.8066 12.7292L51.3597 8.73684C51.6946 8.44386 51.8224 7.98115 51.685 7.55776Z" fill="#FFC107"/>
<path d="M82.5552 7.55776C82.4185 7.13517 82.0437 6.83502 81.6003 6.79506L75.5767 6.24811L73.1948 0.673057C73.0191 0.264478 72.6192 0 72.1748 0C71.7303 0 71.3304 0.264478 71.1547 0.674012L68.7728 6.24811L62.7483 6.79506C62.3056 6.83598 61.9318 7.13517 61.7944 7.55776C61.6569 7.98035 61.7838 8.44386 62.1187 8.73605L66.6718 12.7292L65.3292 18.6434C65.231 19.0782 65.3998 19.5277 65.7606 19.7885C65.9545 19.9287 66.1814 20 66.4102 20C66.6075 20 66.8032 19.9468 66.9788 19.8417L72.1748 16.7363L77.3688 19.8417C77.7489 20.0704 78.228 20.0495 78.588 19.7885C78.949 19.5269 79.1176 19.0773 79.0193 18.6434L77.6767 12.7292L82.2298 8.73684C82.5647 8.44386 82.6926 7.98115 82.5552 7.55776Z" fill="#FFC107"/>
<path d="M113.425 7.55776C113.288 7.13517 112.913 6.83502 112.47 6.79506L106.446 6.24811L104.064 0.673057C103.889 0.264478 103.489 0 103.044 0C102.6 0 102.2 0.264478 102.024 0.674012L99.6425 6.24811L93.6179 6.79506C93.1753 6.83598 92.8014 7.13517 92.664 7.55776C92.5266 7.98035 92.6535 8.44386 92.9883 8.73605L97.5415 12.7292L96.1989 18.6434C96.1006 19.0782 96.2694 19.5277 96.6302 19.7885C96.8241 19.9287 97.051 20 97.2799 20C97.4771 20 97.6728 19.9468 97.8485 19.8417L103.044 16.7363L108.238 19.8417C108.618 20.0704 109.098 20.0495 109.458 19.7885C109.819 19.5269 109.987 19.0773 109.889 18.6434L108.546 12.7292L113.099 8.73684C113.434 8.44386 113.562 7.98115 113.425 7.55776Z" fill="#FFC107"/>
<path d="M144.295 7.55776C144.158 7.13517 143.783 6.83502 143.34 6.79506L137.316 6.24811L134.935 0.673057C134.759 0.264478 134.359 0 133.915 0C133.47 0 133.07 0.264478 132.894 0.674012L130.513 6.24811L124.488 6.79506C124.045 6.83598 123.672 7.13517 123.534 7.55776C123.397 7.98035 123.524 8.44386 123.858 8.73605L128.412 12.7292L127.069 18.6434C126.971 19.0782 127.14 19.5277 127.5 19.7885C127.694 19.9287 127.921 20 128.15 20C128.347 20 128.543 19.9468 128.719 19.8417L133.915 16.7363L139.109 19.8417C139.489 20.0704 139.968 20.0495 140.328 19.7885C140.689 19.5269 140.857 19.0773 140.759 18.6434L139.416 12.7292L143.97 8.73684C144.304 8.44386 144.432 7.98115 144.295 7.55776Z" fill="#FFC107"/>
</svg>
