<svg width="151" height="152" viewBox="0 0 151 152" fill="none" xmlns="http://www.w3.org/2000/svg">
<circle cx="75.3324" cy="75.7968" r="75" transform="rotate(-0.169315 75.3324 75.7968)" fill="white"/>
<circle cx="75.3323" cy="75.7969" r="70" transform="rotate(-0.169315 75.3323 75.7969)" fill="#155B2E"/>
<path d="M90.2299 64.993C89.7184 64.714 89.0778 64.9024 88.799 65.4137C88.52 65.9251 88.7084 66.5658 89.2197 66.8447C90.4781 67.5312 91.2009 68.2942 91.2028 68.9381C91.2051 69.7257 90.0929 70.9496 86.9641 72.0229C83.8731 73.0833 79.74 73.6744 75.3262 73.6875C70.9123 73.7005 66.7758 73.1338 63.6786 72.0917C60.5435 71.037 59.424 69.8196 59.4217 69.032C59.4198 68.3881 60.1381 67.6208 61.3924 66.9269C61.9021 66.6449 62.0867 66.0032 61.8047 65.4934C61.5227 64.9838 60.8811 64.7992 60.3713 65.0811C58.9728 65.8549 57.3068 67.1694 57.3123 69.0382C57.3166 70.4708 58.3078 72.5103 63.0059 74.091C66.3161 75.2047 70.6938 75.8105 75.3324 75.7968C79.971 75.7831 84.345 75.1514 87.6486 74.0182C92.3372 72.4097 93.3164 70.3644 93.3122 68.9319C93.3067 67.063 91.633 65.7583 90.2299 64.993Z" fill="white"/>
<path d="M67.3545 70.5561C69.4973 71.1546 72.3262 71.4794 75.32 71.4705C78.3138 71.4617 81.1407 71.1203 83.2799 70.509C85.8971 69.7614 87.2221 68.6863 87.218 67.314C87.214 65.9416 85.8827 64.8745 83.2611 64.1423C82.6792 63.9798 82.0464 63.8376 81.3737 63.7167C81.0104 64.3486 80.6297 64.9991 80.2317 65.6683C80.9762 65.7777 81.6753 65.9126 82.3103 66.0723C84.2394 66.5576 84.9453 67.1083 85.0907 67.3203C84.9465 67.5333 84.244 68.0881 82.3178 68.5847C80.4946 69.0548 78.148 69.3268 75.6757 69.3578C75.5559 69.3671 75.4353 69.3724 75.3138 69.3728C75.1922 69.3731 75.0716 69.3685 74.9518 69.36C72.4793 69.3436 70.1311 69.0855 68.3052 68.6262C66.3761 68.1409 65.6703 67.5902 65.5249 67.3782C65.669 67.1652 66.3716 66.6104 68.2979 66.1138C68.9319 65.9503 69.6302 65.8113 70.3741 65.6974C69.9721 65.0306 69.5876 64.3823 69.2206 63.7526C68.5487 63.8776 67.9166 64.0234 67.3357 64.1894C64.7186 64.937 63.3936 66.012 63.3976 67.3844C63.4017 68.7567 64.733 69.8239 67.3545 70.5561Z" fill="white"/>
<path d="M75.3074 67.2633C76.2463 67.2606 77.0977 66.7796 77.5851 65.9769C81.0004 60.3518 85.0695 52.9396 85.0595 49.5723C85.0435 44.1662 80.6324 39.781 75.2262 39.797C69.82 39.813 65.4349 44.2242 65.4508 49.6302C65.4608 52.9976 69.5736 60.3856 73.0221 65.9903C73.5143 66.7902 74.3686 67.2661 75.3074 67.2633ZM71.3124 48.9398C71.306 46.7669 73.0686 44.9939 75.2415 44.9875C77.4145 44.981 79.1876 46.7436 79.194 48.9165C79.2004 51.0894 77.4378 52.8624 75.2648 52.8688C73.0919 52.8752 71.3188 51.1128 71.3124 48.9398Z" fill="white"/>
<path d="M40.8887 94.9387L44.4597 85.1081L48.2397 85.097L42.3034 99.8946L39.5034 99.9028L33.3997 85.1408L37.2197 85.1295L40.8887 94.9387ZM49.9243 99.872L49.8806 85.0921L53.2006 85.0823L53.2442 99.8622L49.9243 99.872ZM60.9303 100.1C59.757 100.103 58.663 99.8796 57.6483 99.4292C56.6469 98.9655 55.805 98.3013 55.1224 97.4367L56.9154 95.0714C58.0259 96.3748 59.3679 97.0241 60.9412 97.0195C61.5145 97.0178 61.9808 96.8964 62.3401 96.6553C62.6994 96.4009 62.8784 96.0737 62.8772 95.6737C62.8756 95.1271 62.4476 94.6683 61.5931 94.2975L60.2717 93.8214C59.4575 93.5172 58.8234 93.2457 58.3693 93.0071C56.7801 92.1451 55.9831 90.9008 55.9783 89.2741C55.9745 87.9941 56.458 86.9327 57.4289 86.0898C58.3997 85.2469 59.6651 84.8232 61.2251 84.8186C63.1851 84.8128 64.8604 85.4612 66.2509 86.7637L64.6182 89.2286C64.1903 88.8298 63.6627 88.5114 63.0354 88.2732C62.4213 88.0351 61.8343 87.9168 61.2743 87.9184C60.7276 87.9201 60.2946 88.0347 59.9753 88.2623C59.6693 88.4765 59.5168 88.7703 59.5179 89.1436C59.5194 89.6503 59.9207 90.0825 60.7217 90.4401L62.1635 91.0158C63.0578 91.3599 63.6252 91.5915 63.8655 91.7108C65.6412 92.5056 66.5316 93.7563 66.5366 95.4629C66.5406 96.8229 66.0239 97.9311 64.9864 98.7875C63.9623 99.6572 62.6103 100.095 60.9303 100.1ZM68.7914 99.8163L68.7477 85.0364L72.0677 85.0265L72.1113 99.8065L68.7914 99.8163ZM78.1366 99.7887L78.1024 88.1887L73.9224 88.2011L73.913 85.0211L85.5729 84.9866L85.5823 88.1666L81.4223 88.1789L81.4566 99.7789L78.1366 99.7887ZM97.5208 99.9914C95.8408 99.9964 94.4327 99.5138 93.2965 98.5439C92.1603 97.5739 91.5893 96.1222 91.5836 94.1889L91.5563 84.9689L94.8763 84.9591L94.9032 94.0391C94.9058 94.9458 95.1345 95.6318 95.5892 96.0971C96.0573 96.5624 96.698 96.7938 97.5113 96.7914C98.298 96.7891 98.9239 96.5539 99.3892 96.0859C99.8545 95.6045 100.086 94.9171 100.083 94.0238L100.056 84.9438L103.376 84.934L103.404 94.154C103.409 96.074 102.854 97.529 101.736 98.5189C100.633 99.4955 99.2274 99.9863 97.5208 99.9914ZM110.891 99.9519C109.718 99.9553 108.624 99.7319 107.609 99.2816C106.608 98.8179 105.766 98.1537 105.083 97.289L106.876 94.9237C107.987 96.2271 109.329 96.8765 110.902 96.8718C111.475 96.8701 111.942 96.7488 112.301 96.5077C112.66 96.2533 112.839 95.9261 112.838 95.5261C112.836 94.9794 112.408 94.5207 111.554 94.1499L110.232 93.6738C109.418 93.3695 108.784 93.0981 108.33 92.8594C106.741 91.9974 105.944 90.7531 105.939 89.1265C105.935 87.8465 106.419 86.785 107.39 85.9422C108.36 85.0993 109.626 84.6756 111.186 84.6709C113.146 84.6651 114.821 85.3135 116.212 86.6161L114.579 89.0809C114.151 88.6822 113.623 88.3638 112.996 88.1256C112.382 87.8874 111.795 87.7692 111.235 87.7708C110.688 87.7724 110.255 87.887 109.936 88.1146C109.63 88.3289 109.478 88.6227 109.479 88.996C109.48 89.5027 109.881 89.9348 110.682 90.2925L112.124 90.8682C113.019 91.2122 113.586 91.4439 113.826 91.5632C115.602 92.3579 116.492 93.6086 116.497 95.3153C116.501 96.6753 115.985 97.7835 114.947 98.6399C113.923 99.5096 112.571 99.9469 110.891 99.9519Z" fill="white"/>
</svg>
