<svg width="150" height="150" viewBox="0 0 150 150" fill="none" xmlns="http://www.w3.org/2000/svg">
<circle cx="75" cy="75" r="75" fill="white"/>
<circle cx="75" cy="75" r="70" fill="url(#paint0_linear_1032_9290)"/>
<path d="M89.9294 64.2399C89.4187 63.9595 88.7775 64.146 88.4972 64.6565C88.2167 65.167 88.4032 65.8083 88.9137 66.0887C90.1701 66.7789 90.8906 67.544 90.8906 68.1879C90.8906 68.9755 89.7748 70.1961 86.6428 71.2602C83.5487 72.3115 79.4139 72.8904 75 72.8904C70.5861 72.8904 66.4513 72.3115 63.3572 71.2602C60.2252 70.1962 59.1094 68.9755 59.1094 68.1879C59.1094 67.544 59.8299 66.7789 61.0863 66.0886C61.5968 65.8082 61.7833 65.1669 61.5028 64.6564C61.2223 64.1459 60.5813 63.9594 60.0706 64.2399C58.6699 65.0094 57 66.3191 57 68.1879C57 69.6205 57.9852 71.6629 62.6786 73.2575C65.9855 74.381 70.3613 74.9997 75 74.9997C79.6387 74.9997 84.0145 74.381 87.3214 73.2575C92.0148 71.6629 93 69.6205 93 68.1879C93 66.3191 91.3301 65.0094 89.9294 64.2399Z" fill="white"/>
<path d="M67.0373 69.7355C69.1783 70.3403 72.0062 70.6734 75.0001 70.6734C77.9939 70.6734 80.8218 70.3404 82.9628 69.7355C85.5822 68.9956 86.9103 67.9244 86.9103 66.5521C86.9103 65.1796 85.5822 64.1086 82.9628 63.3687C82.3813 63.2045 81.749 63.0604 81.0766 62.9375C80.7115 63.5683 80.3289 64.2177 79.9289 64.8857C80.6731 64.9974 81.3718 65.1343 82.0063 65.2959C83.934 65.7869 84.6382 66.3396 84.783 66.5521C84.6382 66.7647 83.9341 67.3174 82.0064 67.8083C80.1818 68.273 77.8344 68.5381 75.362 68.5618C75.2422 68.5707 75.1216 68.5756 75.0001 68.5756C74.8785 68.5756 74.7579 68.5707 74.6381 68.5618C72.1657 68.5381 69.8183 68.2731 67.9937 67.8083C66.066 67.3174 65.3619 66.7646 65.2171 66.5521C65.3619 66.3396 66.0661 65.7869 67.9938 65.2959C68.6283 65.1343 69.327 64.9974 70.0712 64.8857C69.6712 64.2178 69.2887 63.5683 68.9235 62.9375C68.2512 63.0605 67.6187 63.2045 67.0373 63.3687C64.418 64.1086 63.0898 65.1797 63.0898 66.5521C63.0898 67.9244 64.418 68.9955 67.0373 69.7355Z" fill="white"/>
<path d="M74.9997 66.4664C75.9386 66.4664 76.7914 65.988 77.2812 65.1867C80.7131 59.5717 84.8041 52.1716 84.8041 48.8043C84.8041 43.3982 80.4059 39 74.9997 39C69.5935 39 65.1953 43.3982 65.1953 48.8043C65.1953 52.1716 69.2863 59.5717 72.7182 65.1867C73.208 65.988 74.0609 66.4664 74.9997 66.4664ZM71.0589 48.1311C71.0589 45.9583 72.8267 44.1905 74.9997 44.1905C77.1726 44.1905 78.9405 45.9583 78.9405 48.1311C78.9405 50.3041 77.1726 52.0719 74.9997 52.0719C72.8267 52.0719 71.0589 50.3041 71.0589 48.1311Z" fill="white"/>
<path d="M40.5 94.04L44.1 84.22H47.88L41.9 99H39.1L33.04 84.22H36.86L40.5 94.04ZM49.5209 99V84.22H52.8409V99H49.5209ZM60.5263 99.26C59.3529 99.26 58.2596 99.0333 57.2463 98.58C56.2463 98.1133 55.4063 97.4467 54.7263 96.58L56.5263 94.22C57.6329 95.5267 58.9729 96.18 60.5463 96.18C61.1196 96.18 61.5863 96.06 61.9463 95.82C62.3063 95.5667 62.4863 95.24 62.4863 94.84C62.4863 94.2933 62.0596 93.8333 61.2063 93.46L59.8863 92.98C59.0729 92.6733 58.4396 92.4 57.9863 92.16C56.3996 91.2933 55.6063 90.0467 55.6063 88.42C55.6063 87.14 56.0929 86.08 57.0663 85.24C58.0396 84.4 59.3063 83.98 60.8663 83.98C62.8263 83.98 64.4996 84.6333 65.8863 85.94L64.2463 88.4C63.8196 88 63.2929 87.68 62.6663 87.44C62.0529 87.2 61.4663 87.08 60.9063 87.08C60.3596 87.08 59.9263 87.1933 59.6063 87.42C59.2996 87.6333 59.1463 87.9267 59.1463 88.3C59.1463 88.8067 59.5463 89.24 60.3463 89.6L61.7863 90.18C62.6796 90.5267 63.2463 90.76 63.4863 90.88C65.2596 91.68 66.1463 92.9333 66.1463 94.64C66.1463 96 65.6263 97.1067 64.5863 97.96C63.5596 98.8267 62.2063 99.26 60.5263 99.26ZM68.3881 99V84.22H71.7081V99H68.3881ZM77.7334 99V87.4H73.5534V84.22H85.2134V87.4H81.0534V99H77.7334ZM97.1169 99.26C95.4369 99.26 94.0302 98.7733 92.8969 97.8C91.7635 96.8267 91.1969 95.3733 91.1969 93.44V84.22H94.5169V93.3C94.5169 94.2067 94.7435 94.8933 95.1969 95.36C95.6635 95.8267 96.3035 96.06 97.1169 96.06C97.9035 96.06 98.5302 95.8267 98.9969 95.36C99.4635 94.88 99.6969 94.1933 99.6969 93.3V84.22H103.017V93.44C103.017 95.36 102.457 96.8133 101.337 97.8C100.23 98.7733 98.8235 99.26 97.1169 99.26ZM110.487 99.26C109.314 99.26 108.221 99.0333 107.207 98.58C106.207 98.1133 105.367 97.4467 104.687 96.58L106.487 94.22C107.594 95.5267 108.934 96.18 110.507 96.18C111.081 96.18 111.547 96.06 111.907 95.82C112.267 95.5667 112.447 95.24 112.447 94.84C112.447 94.2933 112.021 93.8333 111.167 93.46L109.847 92.98C109.034 92.6733 108.401 92.4 107.947 92.16C106.361 91.2933 105.567 90.0467 105.567 88.42C105.567 87.14 106.054 86.08 107.027 85.24C108.001 84.4 109.267 83.98 110.827 83.98C112.787 83.98 114.461 84.6333 115.847 85.94L114.207 88.4C113.781 88 113.254 87.68 112.627 87.44C112.014 87.2 111.427 87.08 110.867 87.08C110.321 87.08 109.887 87.1933 109.567 87.42C109.261 87.6333 109.107 87.9267 109.107 88.3C109.107 88.8067 109.507 89.24 110.307 89.6L111.747 90.18C112.641 90.5267 113.207 90.76 113.447 90.88C115.221 91.68 116.107 92.9333 116.107 94.64C116.107 96 115.587 97.1067 114.547 97.96C113.521 98.8267 112.167 99.26 110.487 99.26Z" fill="white"/>
<defs>
<linearGradient id="paint0_linear_1032_9290" x1="21.3115" y1="182.359" x2="129.426" y2="181.413" gradientUnits="userSpaceOnUse">
<stop offset="0.229774" stop-color="#FE8801"/>
<stop offset="0.736049" stop-color="#E93800"/>
</linearGradient>
</defs>
</svg>
