<svg width="177" height="59" viewBox="0 0 177 59" fill="none" xmlns="http://www.w3.org/2000/svg">
<rect width="177" height="59" fill="black"/>
<path d="M77.0227 35H75.6827L73.9227 30.52H67.7027L65.9427 35H64.6027L70.5027 20.22H71.1627L77.0227 35ZM73.5227 29.38L70.8227 22.4L68.1027 29.38H73.5227ZM80.1696 35H78.9696V24.3H80.1296V26.18C80.7829 24.74 82.0229 24.02 83.8496 24.02C85.0363 24.02 86.0429 24.4133 86.8696 25.2C87.6829 25.9733 88.0896 27.0867 88.0896 28.54V35H86.8896V28.76C86.8896 27.64 86.6029 26.76 86.0296 26.12C85.4696 25.4667 84.6963 25.14 83.7096 25.14C82.7629 25.14 81.9363 25.4667 81.2296 26.12C80.5229 26.76 80.1696 27.72 80.1696 29V35ZM100.056 26.4V19.9H101.256V35H100.056V32.92C99.6024 33.6667 99.009 34.2467 98.2757 34.66C97.5424 35.0733 96.7224 35.28 95.8157 35.28C94.309 35.28 93.0424 34.74 92.0157 33.66C91.0024 32.5667 90.4957 31.2333 90.4957 29.66C90.4957 28.0733 91.0024 26.7467 92.0157 25.68C93.0424 24.6 94.309 24.06 95.8157 24.06C96.7224 24.06 97.5424 24.2667 98.2757 24.68C99.009 25.0933 99.6024 25.6667 100.056 26.4ZM95.8757 34.16C97.1157 34.16 98.1357 33.72 98.9357 32.84C99.7357 31.96 100.136 30.8867 100.136 29.62C100.136 28.38 99.7357 27.3267 98.9357 26.46C98.1357 25.5933 97.1157 25.16 95.8757 25.16C94.649 25.16 93.6424 25.5933 92.8557 26.46C92.0824 27.3133 91.6957 28.38 91.6957 29.66C91.6957 30.94 92.0824 32.0067 92.8557 32.86C93.6424 33.7267 94.649 34.16 95.8757 34.16ZM105.716 35H104.516V24.3H105.656V26.02C106.23 24.6867 107.263 24.02 108.756 24.02C109.17 24.02 109.61 24.08 110.076 24.2L109.936 25.34C109.563 25.22 109.183 25.16 108.796 25.16C107.836 25.16 107.083 25.5067 106.536 26.2C105.99 26.88 105.716 27.78 105.716 28.9V35ZM110.437 29.64C110.437 28.0533 110.964 26.7267 112.017 25.66C113.084 24.58 114.41 24.04 115.997 24.04C117.584 24.04 118.91 24.58 119.977 25.66C121.03 26.7267 121.557 28.0533 121.557 29.64C121.557 31.24 121.03 32.5733 119.977 33.64C118.91 34.72 117.584 35.26 115.997 35.26C114.41 35.26 113.084 34.72 112.017 33.64C110.964 32.5733 110.437 31.24 110.437 29.64ZM115.997 34.16C117.25 34.16 118.29 33.7267 119.117 32.86C119.944 31.9667 120.357 30.8933 120.357 29.64C120.357 28.3733 119.944 27.3067 119.117 26.44C118.29 25.5733 117.25 25.14 115.997 25.14C114.757 25.14 113.717 25.58 112.877 26.46C112.05 27.3267 111.637 28.3867 111.637 29.64C111.637 30.8933 112.05 31.9667 112.877 32.86C113.717 33.7267 114.757 34.16 115.997 34.16ZM124.647 22.62C124.353 22.62 124.107 22.5267 123.907 22.34C123.707 22.14 123.607 21.8933 123.607 21.6C123.607 21.3067 123.707 21.0667 123.907 20.88C124.107 20.68 124.353 20.58 124.647 20.58C124.927 20.58 125.167 20.68 125.367 20.88C125.567 21.0667 125.667 21.3067 125.667 21.6C125.667 21.8933 125.567 22.14 125.367 22.34C125.167 22.5267 124.927 22.62 124.647 22.62ZM125.207 24.3V35H124.007V24.3H125.207ZM137.38 26.4V19.9H138.58V35H137.38V32.92C136.927 33.6667 136.333 34.2467 135.6 34.66C134.867 35.0733 134.047 35.28 133.14 35.28C131.633 35.28 130.367 34.74 129.34 33.66C128.327 32.5667 127.82 31.2333 127.82 29.66C127.82 28.0733 128.327 26.7467 129.34 25.68C130.367 24.6 131.633 24.06 133.14 24.06C134.047 24.06 134.867 24.2667 135.6 24.68C136.333 25.0933 136.927 25.6667 137.38 26.4ZM133.2 34.16C134.44 34.16 135.46 33.72 136.26 32.84C137.06 31.96 137.46 30.8867 137.46 29.62C137.46 28.38 137.06 27.3267 136.26 26.46C135.46 25.5933 134.44 25.16 133.2 25.16C131.973 25.16 130.967 25.5933 130.18 26.46C129.407 27.3133 129.02 28.38 129.02 29.66C129.02 30.94 129.407 32.0067 130.18 32.86C130.967 33.7267 131.973 34.16 133.2 34.16Z" fill="white"/>
<path fill-rule="evenodd" clip-rule="evenodd" d="M28.3342 16.4179C28.0235 16.74 27.8438 17.2398 27.8438 17.8877V41.0025C27.8438 41.6504 28.0242 42.1509 28.3342 42.4723L28.411 42.5429L41.5161 29.5952V29.289L28.407 16.3418L28.3342 16.4179Z" fill="url(#paint0_linear_796_1186)"/>
<path fill-rule="evenodd" clip-rule="evenodd" d="M45.8777 33.9137L41.5176 29.5952V29.289L45.8823 24.9719L45.9796 25.028L51.1538 27.9343C52.6301 28.7602 52.6301 30.1194 51.1538 30.9498L45.9796 33.8563L45.8777 33.9137Z" fill="url(#paint1_linear_796_1186)"/>
<path fill-rule="evenodd" clip-rule="evenodd" d="M45.9845 33.8575L41.5178 29.4424L28.3359 42.4729C28.8265 42.9826 29.6265 43.0435 30.5355 42.5337L45.9845 33.8575Z" fill="url(#paint2_linear_796_1186)"/>
<path fill-rule="evenodd" clip-rule="evenodd" d="M45.9837 25.028L30.5395 16.3485C29.6297 15.8434 28.8304 15.9056 28.3398 16.4153L41.5171 29.4431L45.9837 25.028Z" fill="url(#paint3_linear_796_1186)"/>
<defs>
<linearGradient id="paint0_linear_796_1186" x1="41.6708" y1="22.4899" x2="27.6889" y2="36.395" gradientUnits="userSpaceOnUse">
<stop stop-color="#00A0FF"/>
<stop offset="0.0117647" stop-color="#00A1FF"/>
<stop offset="0.258824" stop-color="#00BEFF"/>
<stop offset="0.509804" stop-color="#00D2FF"/>
<stop offset="0.760784" stop-color="#00DFFF"/>
<stop offset="1" stop-color="#00E3FF"/>
</linearGradient>
<linearGradient id="paint1_linear_796_1186" x1="52.2612" y1="29.4431" x2="41.5176" y2="29.4431" gradientUnits="userSpaceOnUse">
<stop stop-color="#FFE000"/>
<stop offset="0.411765" stop-color="#FFBD00"/>
<stop offset="0.780392" stop-color="#FFA500"/>
<stop offset="1" stop-color="#FF9C00"/>
</linearGradient>
<linearGradient id="paint2_linear_796_1186" x1="42.5889" y1="30.7145" x2="31.7315" y2="41.6154" gradientUnits="userSpaceOnUse">
<stop stop-color="#FF3A44"/>
<stop offset="1" stop-color="#C31162"/>
</linearGradient>
<linearGradient id="paint3_linear_796_1186" x1="31.7216" y1="17.2807" x2="42.6027" y2="28.1618" gradientUnits="userSpaceOnUse">
<stop stop-color="#32A071"/>
<stop offset="0.0705882" stop-color="#2DA771"/>
<stop offset="0.478431" stop-color="#15CF74"/>
<stop offset="0.8" stop-color="#06E775"/>
<stop offset="1" stop-color="#00F076"/>
</linearGradient>
</defs>
</svg>
