<svg width="21" height="20" viewBox="0 0 21 20" fill="none" xmlns="http://www.w3.org/2000/svg">
<path d="M10.2085 0C8.23068 0 6.29729 0.58649 4.6528 1.6853C3.00831 2.78412 1.72658 4.3459 0.969705 6.17316C0.212829 8.00042 0.0147956 10.0111 0.400648 11.9509C0.7865 13.8907 1.73891 15.6725 3.13743 17.0711C4.53596 18.4696 6.31779 19.422 8.2576 19.8078C10.1974 20.1937 12.2081 19.9957 14.0353 19.2388C15.8626 18.4819 17.4244 17.2002 18.5232 15.5557C19.622 13.9112 20.2085 11.9778 20.2085 10C20.2085 7.34783 19.1549 4.80429 17.2796 2.92893C15.4042 1.05357 12.8607 0 10.2085 0ZM12.7427 9.05263L12.5769 10.446C12.5698 10.5107 12.5389 10.5704 12.4903 10.6137C12.4417 10.6569 12.3788 10.6807 12.3138 10.6803H10.8664V14.8118C10.8667 14.8612 10.8476 14.9086 10.8131 14.9439C10.7786 14.9791 10.7315 14.9993 10.6822 15H9.2085C9.18396 14.9997 9.15973 14.9945 9.13719 14.9848C9.11466 14.9751 9.09425 14.961 9.07715 14.9434C9.06004 14.9258 9.04657 14.905 9.0375 14.8822C9.02843 14.8594 9.02394 14.8351 9.02429 14.8105L9.03218 10.6803H7.93613C7.86634 10.6803 7.7994 10.6525 7.75005 10.6032C7.7007 10.5538 7.67297 10.4869 7.67297 10.4171V9.025C7.67297 8.9552 7.7007 8.88827 7.75005 8.83892C7.7994 8.78957 7.86634 8.76184 7.93613 8.76184H9.02429V7.41184C9.02429 5.85 9.95455 5 11.3138 5H12.4282C12.498 5 12.565 5.02772 12.6143 5.07708C12.6637 5.12643 12.6914 5.19336 12.6914 5.26316V6.43552C12.6914 6.50532 12.6637 6.57225 12.6143 6.62161C12.565 6.67096 12.498 6.69868 12.4282 6.69868H11.7453C11.0059 6.71052 10.8664 7.06447 10.8664 7.59342V8.75789H12.4874C12.5242 8.75873 12.5603 8.76724 12.5935 8.78288C12.6268 8.79852 12.6563 8.82094 12.6804 8.8487C12.7044 8.87646 12.7224 8.90895 12.7331 8.94407C12.7439 8.97919 12.7471 9.01617 12.7427 9.05263Z" fill="#848484"/>
</svg>
