<svg width="34" height="34" viewBox="0 0 34 34" fill="none" xmlns="http://www.w3.org/2000/svg">
<circle cx="17" cy="17" r="17" fill="white"/>
<path d="M21.941 11.6455C21.7135 11.6455 21.5283 11.8307 21.5283 12.0582C21.5283 12.2858 21.7135 12.4709 21.941 12.4709C22.1686 12.4709 22.3537 12.2858 22.3537 12.0582C22.3537 11.8306 22.1686 11.6455 21.941 11.6455Z" fill="url(#paint0_linear_1158_4962)"/>
<path d="M16.9997 13.3413C14.9822 13.3413 13.3408 14.9827 13.3408 17.0002C13.3408 19.0176 14.9822 20.659 16.9997 20.659C19.0172 20.659 20.6586 19.0177 20.6586 17.0002C20.6586 14.9827 19.0172 13.3413 16.9997 13.3413Z" fill="url(#paint1_linear_1158_4962)"/>
<path d="M20.8397 8.5H13.1603C10.5906 8.5 8.5 10.5906 8.5 13.1603V20.8397C8.5 23.4094 10.5906 25.5 13.1603 25.5H20.8397C23.4094 25.5 25.5 23.4094 25.5 20.8397V13.1603C25.5 10.5906 23.4094 8.5 20.8397 8.5ZM17 21.6628C14.4289 21.6628 12.3373 19.5711 12.3373 17C12.3373 14.4289 14.4289 12.3373 17 12.3373C19.5711 12.3373 21.6628 14.4289 21.6628 17C21.6628 19.5711 19.5711 21.6628 17 21.6628ZM21.9417 13.475C21.1605 13.475 20.525 12.8395 20.525 12.0584C20.525 11.2772 21.1605 10.6417 21.9417 10.6417C22.7228 10.6417 23.3583 11.2772 23.3583 12.0583C23.3583 12.8395 22.7228 13.475 21.9417 13.475Z" fill="url(#paint2_linear_1158_4962)"/>
<defs>
<linearGradient id="paint0_linear_1158_4962" x1="21.6245" y1="12.6912" x2="22.2619" y2="12.6856" gradientUnits="userSpaceOnUse">
<stop offset="0.229774" stop-color="#FE8801"/>
<stop offset="0.736049" stop-color="#E93800"/>
</linearGradient>
<linearGradient id="paint1_linear_1158_4962" x1="14.1934" y1="22.6118" x2="19.8445" y2="22.5623" gradientUnits="userSpaceOnUse">
<stop offset="0.229774" stop-color="#FE8801"/>
<stop offset="0.736049" stop-color="#E93800"/>
</linearGradient>
<linearGradient id="paint2_linear_1158_4962" x1="10.4807" y1="30.0365" x2="23.6089" y2="29.9216" gradientUnits="userSpaceOnUse">
<stop offset="0.229774" stop-color="#FE8801"/>
<stop offset="0.736049" stop-color="#E93800"/>
</linearGradient>
</defs>
</svg>
