<svg width="34" height="34" viewBox="0 0 34 34" fill="none" xmlns="http://www.w3.org/2000/svg">
<path d="M17 0C7.61148 0 0 7.61148 0 17C0 26.3885 7.61148 34 17 34C26.3885 34 34 26.3885 34 17C34 7.61148 26.3885 0 17 0Z" fill="#202020"/>
<path d="M19.1097 14.9785L24.683 8.5H23.3623L18.523 14.1252L14.6579 8.5H10.2L16.0448 17.0063L10.2 23.8H11.5207L16.6311 17.8596L20.713 23.8H25.171L19.1094 14.9785H19.1097ZM11.9966 9.49427H14.0252L23.3629 22.851H21.3343L11.9966 9.49427Z" fill="#FFDF00"/>
<path d="M16.5712 13.8572L16.5825 13.8762L16.5955 13.8941L22.818 22.45H21.5129L12.8504 9.84998H14.1668L16.5712 13.8572Z" stroke="#FFDF00"/>
</svg>
