<svg width="34" height="34" viewBox="0 0 34 34" fill="none" xmlns="http://www.w3.org/2000/svg">
<path d="M14.9663 13.7438L20.2699 17.0006L14.9663 20.2597V13.7438Z" fill="#202020"/>
<path d="M17 0C13.6377 0 10.3509 0.997032 7.55531 2.86502C4.75968 4.733 2.58074 7.38804 1.29406 10.4944C0.00736579 13.6007 -0.329291 17.0189 0.326658 20.3165C0.982606 23.6142 2.6017 26.6433 4.97919 29.0208C7.35668 31.3983 10.3858 33.0174 13.6835 33.6733C16.9811 34.3293 20.3993 33.9926 23.5056 32.7059C26.612 31.4193 29.267 29.2403 31.135 26.4447C33.003 23.6491 34 20.3623 34 17C34 12.4913 32.2089 8.1673 29.0208 4.97918C25.8327 1.79107 21.5087 0 17 0ZM25.1018 21.0912C24.7618 22.1358 23.6367 22.771 22.6011 22.9164C18.8775 23.3124 15.1225 23.3124 11.399 22.9164C10.3633 22.771 9.23816 22.1358 8.89816 21.0912C8.36805 18.3902 8.36805 15.612 8.89816 12.911C9.23816 11.8553 10.3633 11.2312 11.4079 11.0858C15.1314 10.6899 18.8865 10.6899 22.61 11.0858C23.6457 11.2312 24.7708 11.8642 25.1108 12.911C25.6379 15.6126 25.6349 18.3908 25.1018 21.0912Z" fill="#202020"/>
</svg>
