<svg width="34" height="34" viewBox="0 0 34 34" fill="none" xmlns="http://www.w3.org/2000/svg">
<path d="M17 0C7.61148 0 0 7.61148 0 17C0 26.3885 7.61148 34 17 34C26.3885 34 34 26.3885 34 17C34 7.61148 26.3885 0 17 0Z" fill="white"/>
<path d="M19.11 14.9785L24.6833 8.5H23.3626L18.5233 14.1252L14.6582 8.5H10.2002L16.045 17.0063L10.2002 23.8H11.521L16.6314 17.8596L20.7132 23.8H25.1712L19.1096 14.9785H19.11ZM11.9968 9.49427H14.0255L23.3632 22.851H21.3346L11.9968 9.49427Z" fill="url(#paint0_linear_1158_4964)"/>
<path d="M21.2504 22.9501L11.9004 9.3501H14.4504L17.0004 13.6001L23.8004 22.9501H22.9504H21.2504Z" fill="url(#paint1_linear_1158_4964)"/>
<defs>
<linearGradient id="paint0_linear_1158_4964" x1="11.9445" y1="27.8828" x2="23.5059" y2="27.7838" gradientUnits="userSpaceOnUse">
<stop offset="0.229774" stop-color="#FE8801"/>
<stop offset="0.736049" stop-color="#E93800"/>
</linearGradient>
<linearGradient id="paint1_linear_1158_4964" x1="13.2869" y1="26.5793" x2="22.4768" y2="26.5089" gradientUnits="userSpaceOnUse">
<stop offset="0.229774" stop-color="#FE8801"/>
<stop offset="0.736049" stop-color="#E93800"/>
</linearGradient>
</defs>
</svg>
