<svg width="34" height="34" viewBox="0 0 34 34" fill="none" xmlns="http://www.w3.org/2000/svg">
<circle cx="17" cy="17" r="17" fill="#202020"/>
<path d="M21.9413 11.6454C21.7137 11.6454 21.5286 11.8306 21.5286 12.0581C21.5286 12.2856 21.7137 12.4708 21.9413 12.4708C22.1689 12.4708 22.354 12.2857 22.354 12.0581C22.354 11.8305 22.1689 11.6454 21.9413 11.6454Z" fill="#FFDF00"/>
<path d="M16.9999 13.3412C14.9824 13.3412 13.3411 14.9825 13.3411 17C13.3411 19.0175 14.9824 20.6589 16.9999 20.6589C19.0174 20.6589 20.6588 19.0176 20.6588 17.0001C20.6588 14.9826 19.0174 13.3412 16.9999 13.3412Z" fill="#FFDF00"/>
<path d="M20.8397 8.5H13.1603C10.5906 8.5 8.5 10.5906 8.5 13.1603V20.8397C8.5 23.4094 10.5906 25.5 13.1603 25.5H20.8397C23.4094 25.5 25.5 23.4094 25.5 20.8397V13.1603C25.5 10.5906 23.4094 8.5 20.8397 8.5ZM17 21.6628C14.4289 21.6628 12.3373 19.5711 12.3373 17C12.3373 14.4289 14.4289 12.3373 17 12.3373C19.5711 12.3373 21.6628 14.4289 21.6628 17C21.6628 19.5711 19.5711 21.6628 17 21.6628ZM21.9417 13.475C21.1605 13.475 20.525 12.8395 20.525 12.0584C20.525 11.2772 21.1605 10.6417 21.9417 10.6417C22.7228 10.6417 23.3583 11.2772 23.3583 12.0583C23.3583 12.8395 22.7228 13.475 21.9417 13.475Z" fill="#FFDF00"/>
</svg>
