<svg width="34" height="34" viewBox="0 0 34 34" fill="none" xmlns="http://www.w3.org/2000/svg">
<path d="M17 0C13.6377 0 10.3509 0.997032 7.55531 2.86502C4.75968 4.733 2.58074 7.38804 1.29406 10.4944C0.00736579 13.6007 -0.329291 17.0189 0.326658 20.3165C0.982606 23.6142 2.6017 26.6433 4.97919 29.0208C7.35668 31.3983 10.3858 33.0174 13.6835 33.6733C16.9811 34.3293 20.3993 33.9926 23.5056 32.7059C26.612 31.4193 29.267 29.2403 31.135 26.4447C33.003 23.6491 34 20.3623 34 17C34 12.4913 32.2089 8.1673 29.0208 4.97918C25.8327 1.79107 21.5087 0 17 0ZM21.3082 15.3895L21.0263 17.7583C21.0142 17.8682 20.9617 17.9697 20.8791 18.0433C20.7965 18.1168 20.6895 18.1571 20.5789 18.1564H18.1184V25.1801C18.119 25.264 18.0864 25.3447 18.0278 25.4046C17.9691 25.4645 17.8891 25.4988 17.8053 25.5H15.3C15.2583 25.4994 15.2171 25.4906 15.1788 25.4741C15.1405 25.4576 15.1058 25.4337 15.0767 25.4038C15.0476 25.3739 15.0247 25.3385 15.0093 25.2998C14.9939 25.261 14.9863 25.2196 14.9868 25.1779L15.0003 18.1564H13.137C13.0183 18.1564 12.9045 18.1093 12.8206 18.0254C12.7367 17.9415 12.6896 17.8277 12.6896 17.7091V15.3425C12.6896 15.2238 12.7367 15.1101 12.8206 15.0262C12.9045 14.9423 13.0183 14.8951 13.137 14.8951H14.9868V12.6001C14.9868 9.945 16.5683 8.5 18.879 8.5H20.7736C20.8922 8.5 21.006 8.54713 21.0899 8.63103C21.1738 8.71493 21.2209 8.82872 21.2209 8.94737V10.9404C21.2209 11.059 21.1738 11.1728 21.0899 11.2567C21.006 11.3406 20.8922 11.3878 20.7736 11.3878H19.6126C18.3555 11.4079 18.1184 12.0096 18.1184 12.9088V14.8884H20.8742C20.9366 14.8898 20.9981 14.9043 21.0545 14.9309C21.111 14.9575 21.1613 14.9956 21.2022 15.0428C21.2431 15.09 21.2736 15.1452 21.2919 15.2049C21.3101 15.2646 21.3157 15.3275 21.3082 15.3895Z" fill="#202020"/>
</svg>
