<svg width="21" height="20" viewBox="0 0 21 20" fill="none" xmlns="http://www.w3.org/2000/svg">
<circle cx="10.2085" cy="10" r="10" fill="#848484"/>
<path d="M13.1151 6.8501C12.9812 6.8501 12.8723 6.95902 12.8723 7.09287C12.8723 7.22672 12.9812 7.33564 13.1151 7.33564C13.249 7.33564 13.3579 7.22674 13.3579 7.09287C13.3579 6.959 13.249 6.8501 13.1151 6.8501Z" fill="#202020"/>
<path d="M10.2084 7.84766C9.02166 7.84766 8.05615 8.81316 8.05615 9.99992C8.05615 11.1867 9.02166 12.1522 10.2084 12.1522C11.3952 12.1522 12.3607 11.1867 12.3607 9.99994C12.3607 8.81318 11.3952 7.84766 10.2084 7.84766Z" fill="#202020"/>
<path d="M12.4671 5H7.94984C6.43826 5 5.2085 6.22977 5.2085 7.74137V12.2587C5.2085 13.7703 6.43826 15 7.94984 15H12.4671C13.9788 15 15.2085 13.7702 15.2085 12.2587V7.74137C15.2085 6.22977 13.9788 5 12.4671 5ZM10.2085 12.7428C8.69609 12.7428 7.4657 11.5124 7.4657 10C7.4657 8.4876 8.69611 7.25723 10.2085 7.25723C11.7209 7.25723 12.9513 8.48762 12.9513 10C12.9513 11.5124 11.7209 12.7428 10.2085 12.7428ZM13.1154 7.92648C12.6559 7.92648 12.282 7.55266 12.282 7.09316C12.282 6.63367 12.6559 6.25982 13.1154 6.25982C13.5748 6.25982 13.9487 6.63365 13.9487 7.09314C13.9487 7.55264 13.5748 7.92648 13.1154 7.92648Z" fill="#202020"/>
</svg>
