<svg width="496" height="484" viewBox="0 0 496 484" fill="none" xmlns="http://www.w3.org/2000/svg">
<path d="M277.6 478.8C281.6 481.84 286.56 483.279 291.52 483.279C295.2 483.279 299.04 482.479 302.4 480.72C310.4 476.56 315.52 468.24 315.52 459.279V24.7196C315.52 15.7596 310.4 7.43932 302.4 3.27916C294.56 -0.720835 284.8 -0.0801959 277.6 5.20012L108.64 125.68H24C10.7197 125.68 0 136.559 0 149.68V334.319C0 347.439 10.7197 358.319 24 358.319H108.64L277.6 478.8Z" fill="white"/>
<path d="M488.969 178.913C479.594 169.538 464.406 169.538 455.031 178.913L425.883 208.059L396.734 178.913C387.359 169.538 372.172 169.538 362.797 178.913C353.422 188.288 353.422 203.483 362.797 212.851L391.944 241.995L362.797 271.14C353.422 280.515 353.422 295.702 362.797 305.077C367.484 309.764 373.625 312.108 379.766 312.108C385.906 312.108 392.047 309.764 396.734 305.077L425.883 275.932L455.031 305.077C459.719 309.764 465.86 312.108 472 312.108C478.141 312.108 484.282 309.764 488.969 305.077C498.344 295.702 498.344 280.514 488.969 271.14L459.822 241.995L488.969 212.851C498.344 203.483 498.344 188.288 488.969 178.913Z" fill="white"/>
</svg>
