<svg width="177" height="59" viewBox="0 0 177 59" fill="none" xmlns="http://www.w3.org/2000/svg">
<rect width="177" height="59" fill="black"/>
<path d="M76.2405 22.62C75.9472 22.62 75.7005 22.5267 75.5005 22.34C75.3005 22.14 75.2005 21.8933 75.2005 21.6C75.2005 21.3067 75.3005 21.0667 75.5005 20.88C75.7005 20.68 75.9472 20.58 76.2405 20.58C76.5205 20.58 76.7605 20.68 76.9605 20.88C77.1605 21.0667 77.2605 21.3067 77.2605 21.6C77.2605 21.8933 77.1605 22.14 76.9605 22.34C76.7605 22.5267 76.5205 22.62 76.2405 22.62ZM76.8005 24.3V35H75.6005V24.3H76.8005ZM80.5337 20.22H85.0937C86.627 20.22 87.7937 20.6667 88.5937 21.56C89.407 22.4533 89.8137 23.5133 89.8137 24.74C89.8137 25.98 89.387 27.0467 88.5337 27.94C87.6937 28.82 86.487 29.26 84.9137 29.26H81.7537V35H80.5337V20.22ZM81.7537 28.12H84.9337C86.0403 28.12 86.9203 27.8 87.5737 27.16C88.2403 26.52 88.5737 25.7067 88.5737 24.72C88.5737 23.7333 88.2603 22.9333 87.6337 22.32C87.0203 21.6933 86.1937 21.38 85.1537 21.38H81.7537V28.12ZM93.2868 35H92.0868V19.9H93.2468V26.1C93.5668 25.4333 94.0468 24.92 94.6868 24.56C95.3401 24.2 96.0935 24.02 96.9468 24.02C98.1468 24.02 99.1535 24.4133 99.9668 25.2C100.78 25.9733 101.187 27.0867 101.187 28.54V35H99.9868V28.74C99.9868 27.62 99.7001 26.74 99.1268 26.1C98.5668 25.46 97.7935 25.14 96.8068 25.14C95.8601 25.14 95.0401 25.46 94.3468 26.1C93.6401 26.74 93.2868 27.7 93.2868 28.98V35ZM103.593 29.64C103.593 28.0533 104.12 26.7267 105.173 25.66C106.24 24.58 107.567 24.04 109.153 24.04C110.74 24.04 112.067 24.58 113.133 25.66C114.187 26.7267 114.713 28.0533 114.713 29.64C114.713 31.24 114.187 32.5733 113.133 33.64C112.067 34.72 110.74 35.26 109.153 35.26C107.567 35.26 106.24 34.72 105.173 33.64C104.12 32.5733 103.593 31.24 103.593 29.64ZM109.153 34.16C110.407 34.16 111.447 33.7267 112.273 32.86C113.1 31.9667 113.513 30.8933 113.513 29.64C113.513 28.3733 113.1 27.3067 112.273 26.44C111.447 25.5733 110.407 25.14 109.153 25.14C107.913 25.14 106.873 25.58 106.033 26.46C105.207 27.3267 104.793 28.3867 104.793 29.64C104.793 30.8933 105.207 31.9667 106.033 32.86C106.873 33.7267 107.913 34.16 109.153 34.16ZM118.443 35H117.243V24.3H118.403V26.18C119.056 24.74 120.296 24.02 122.123 24.02C123.31 24.02 124.316 24.4133 125.143 25.2C125.956 25.9733 126.363 27.0867 126.363 28.54V35H125.163V28.76C125.163 27.64 124.876 26.76 124.303 26.12C123.743 25.4667 122.97 25.14 121.983 25.14C121.036 25.14 120.21 25.4667 119.503 26.12C118.796 26.76 118.443 27.72 118.443 29V35ZM139.089 29.18C139.089 29.3267 139.069 29.64 139.029 30.12H130.029C130.122 31.3333 130.549 32.3067 131.309 33.04C132.069 33.76 133.089 34.12 134.369 34.12C135.062 34.12 135.769 34.0067 136.489 33.78C137.209 33.54 137.809 33.2267 138.289 32.84L138.849 33.76C138.302 34.1867 137.622 34.54 136.809 34.82C136.009 35.1 135.189 35.24 134.349 35.24C132.509 35.24 131.122 34.6933 130.189 33.6C129.256 32.4933 128.789 31.1667 128.789 29.62C128.789 28.0067 129.276 26.6733 130.249 25.62C131.222 24.5667 132.509 24.04 134.109 24.04C135.549 24.04 136.736 24.5067 137.669 25.44C138.616 26.36 139.089 27.6067 139.089 29.18ZM134.109 25.14C132.989 25.14 132.056 25.4933 131.309 26.2C130.576 26.9067 130.149 27.8467 130.029 29.02H137.849C137.836 27.8467 137.482 26.9067 136.789 26.2C136.109 25.4933 135.216 25.14 134.109 25.14Z" fill="white"/>
<path d="M54.0781 41H39.9219C37.208 41 35 38.792 35 36.0781V21.9219C35 19.208 37.208 17 39.9219 17H54.0781C56.792 17 59 19.208 59 21.9219V36.0781C59 38.792 56.792 41 54.0781 41Z" fill="#00C3FF"/>
<path d="M54.0781 17H47V41H54.0781C56.792 41 59 38.792 59 36.0781V21.9219C59 19.208 56.792 17 54.0781 17Z" fill="#00AAF0"/>
<path d="M42.3897 35.4929C42.1729 35.8684 41.7781 36.0785 41.3728 36.0786C41.1741 36.0786 40.9729 36.0281 40.7888 35.9218C40.2292 35.5988 40.0368 34.8807 40.3599 34.3211L40.5904 33.9219H43.2967L42.3897 35.4929Z" fill="white"/>
<path d="M40.1797 32.9844C39.5335 32.9844 39.0078 32.4587 39.0078 31.8125C39.0078 31.1664 39.5335 30.6407 40.1797 30.6407H42.4849L45.6468 25.1641L44.7899 23.6798C44.4668 23.1202 44.6592 22.4021 45.2188 22.079C45.7784 21.7559 46.4966 21.9484 46.8196 22.5079L47 22.8204L47.1804 22.508C47.5036 21.9483 48.2217 21.756 48.7812 22.079C49.0522 22.2355 49.2462 22.4883 49.3272 22.7906C49.4082 23.0929 49.3666 23.4088 49.2101 23.6799L45.1912 30.6407H47.7262L49.0794 32.9844H40.1797Z" fill="white"/>
<path d="M53.8221 32.9843H52.87L53.6417 34.321C53.9648 34.8805 53.7724 35.5986 53.2128 35.9218C53.0322 36.026 52.8318 36.0793 52.6287 36.0793C52.5269 36.0793 52.4245 36.0659 52.3235 36.0388C52.0211 35.9578 51.7684 35.7639 51.6119 35.4928L47.543 28.4452L48.8961 26.1014L51.5168 30.6406H53.8221C54.4682 30.6406 54.9939 31.1663 54.9939 31.8125C54.9939 32.4586 54.4682 32.9843 53.8221 32.9843Z" fill="#F2F2F2"/>
<path d="M47 30.6406V32.9844H49.0794L47.7262 30.6406H47Z" fill="#F2F2F2"/>
<path d="M49.3272 22.7906C49.2461 22.4882 49.0522 22.2355 48.7812 22.079C48.2217 21.756 47.5035 21.9483 47.1804 22.508L47 22.8203V27.5078L49.2101 23.6798C49.3666 23.4088 49.4082 23.093 49.3272 22.7906Z" fill="#F2F2F2"/>
</svg>
