<svg width="21" height="20" viewBox="0 0 21 20" fill="none" xmlns="http://www.w3.org/2000/svg">
<path d="M10.2085 0C4.68584 0 0.208496 4.47734 0.208496 10C0.208496 15.5227 4.68584 20 10.2085 20C15.7312 20 20.2085 15.5227 20.2085 10C20.2085 4.47734 15.7312 0 10.2085 0Z" fill="#848484"/>
<path d="M11.4495 8.81088L14.728 5H13.9511L11.1044 8.30894L8.83083 5H6.2085L9.64663 10.0037L6.2085 14H6.98542L9.99155 10.5056L12.3926 14H15.015L11.4493 8.81088H11.4495ZM7.26535 5.58486H8.45865L13.9514 13.4417H12.7581L7.26535 5.58486Z" fill="#202020"/>
<path d="M9.77975 8.25725L9.79112 8.27621L9.80413 8.29409L13.2266 13H12.9715L8.15901 6H8.4254L9.77975 8.25725Z" stroke="#202020"/>
</svg>
