<svg width="371" height="59" viewBox="0 0 371 59" fill="none" xmlns="http://www.w3.org/2000/svg">
<rect width="371" height="59" fill="black"/>
<rect x="295" y="14" width="1" height="31" fill="#D9D9D9"/>
<path d="M74.358 35H73.758L68.818 20.22H70.058L74.078 32.58L78.318 20.22H78.858L83.158 32.56L87.138 20.22H88.358L83.458 35H82.858L78.598 22.56L74.358 35ZM90.8734 22.62C90.58 22.62 90.3334 22.5267 90.1334 22.34C89.9334 22.14 89.8334 21.8933 89.8334 21.6C89.8334 21.3067 89.9334 21.0667 90.1334 20.88C90.3334 20.68 90.58 20.58 90.8734 20.58C91.1534 20.58 91.3934 20.68 91.5934 20.88C91.7934 21.0667 91.8934 21.3067 91.8934 21.6C91.8934 21.8933 91.7934 22.14 91.5934 22.34C91.3934 22.5267 91.1534 22.62 90.8734 22.62ZM91.4334 24.3V35H90.2334V24.3H91.4334ZM95.9665 35H94.7665V24.3H95.9265V26.18C96.5798 24.74 97.8198 24.02 99.6465 24.02C100.833 24.02 101.84 24.4133 102.666 25.2C103.48 25.9733 103.886 27.0867 103.886 28.54V35H102.686V28.76C102.686 27.64 102.4 26.76 101.826 26.12C101.266 25.4667 100.493 25.14 99.5065 25.14C98.5598 25.14 97.7332 25.4667 97.0265 26.12C96.3198 26.76 95.9665 27.72 95.9665 29V35ZM115.853 26.4V19.9H117.053V35H115.853V32.92C115.399 33.6667 114.806 34.2467 114.073 34.66C113.339 35.0733 112.519 35.28 111.613 35.28C110.106 35.28 108.839 34.74 107.813 33.66C106.799 32.5667 106.293 31.2333 106.293 29.66C106.293 28.0733 106.799 26.7467 107.813 25.68C108.839 24.6 110.106 24.06 111.613 24.06C112.519 24.06 113.339 24.2667 114.073 24.68C114.806 25.0933 115.399 25.6667 115.853 26.4ZM111.673 34.16C112.913 34.16 113.933 33.72 114.733 32.84C115.533 31.96 115.933 30.8867 115.933 29.62C115.933 28.38 115.533 27.3267 114.733 26.46C113.933 25.5933 112.913 25.16 111.673 25.16C110.446 25.16 109.439 25.5933 108.653 26.46C107.879 27.3133 107.493 28.38 107.493 29.66C107.493 30.94 107.879 32.0067 108.653 32.86C109.439 33.7267 110.446 34.16 111.673 34.16ZM119.593 29.64C119.593 28.0533 120.12 26.7267 121.173 25.66C122.24 24.58 123.567 24.04 125.153 24.04C126.74 24.04 128.067 24.58 129.133 25.66C130.187 26.7267 130.713 28.0533 130.713 29.64C130.713 31.24 130.187 32.5733 129.133 33.64C128.067 34.72 126.74 35.26 125.153 35.26C123.567 35.26 122.24 34.72 121.173 33.64C120.12 32.5733 119.593 31.24 119.593 29.64ZM125.153 34.16C126.407 34.16 127.447 33.7267 128.273 32.86C129.1 31.9667 129.513 30.8933 129.513 29.64C129.513 28.3733 129.1 27.3067 128.273 26.44C127.447 25.5733 126.407 25.14 125.153 25.14C123.913 25.14 122.873 25.58 122.033 26.46C121.207 27.3267 120.793 28.3867 120.793 29.64C120.793 30.8933 121.207 31.9667 122.033 32.86C122.873 33.7267 123.913 34.16 125.153 34.16ZM136.348 34.98H135.508L131.748 24.3H132.988L135.968 33.1L139.168 24.3L139.968 24.32L143.208 33.1L146.128 24.3H147.388L143.648 34.98H142.808L139.568 26L136.348 34.98Z" fill="white"/>
<path d="M243.473 34.216C242.069 34.216 240.779 33.766 239.603 32.866L240.161 31.984C241.229 32.788 242.333 33.19 243.473 33.19C244.433 33.19 245.201 32.938 245.777 32.434C246.365 31.918 246.659 31.246 246.659 30.418C246.659 29.59 246.377 28.93 245.813 28.438C245.249 27.946 244.439 27.7 243.383 27.7H241.961V26.71H243.275C244.295 26.71 245.069 26.446 245.597 25.918C246.125 25.39 246.389 24.766 246.389 24.046C246.389 23.29 246.125 22.678 245.597 22.21C245.081 21.73 244.409 21.49 243.581 21.49C242.381 21.49 241.343 21.928 240.467 22.804L239.855 22.048C240.299 21.568 240.857 21.184 241.529 20.896C242.213 20.608 242.909 20.464 243.617 20.464C244.781 20.464 245.717 20.8 246.425 21.472C247.145 22.144 247.505 22.972 247.505 23.956C247.505 24.7 247.295 25.36 246.875 25.936C246.467 26.5 245.921 26.89 245.237 27.106V27.178C246.017 27.358 246.635 27.742 247.091 28.33C247.547 28.918 247.775 29.62 247.775 30.436C247.775 31.528 247.373 32.434 246.569 33.154C245.765 33.862 244.733 34.216 243.473 34.216ZM254.723 29.068L251.285 32.992H257.621V34.018H249.755V33.064L253.589 28.744C254.537 27.664 255.221 26.794 255.641 26.134C256.085 25.462 256.307 24.784 256.307 24.1C256.307 23.344 256.043 22.72 255.515 22.228C254.999 21.736 254.327 21.49 253.499 21.49C252.299 21.49 251.189 22.018 250.169 23.074L249.485 22.318C250.685 21.082 252.029 20.464 253.517 20.464C254.657 20.464 255.581 20.812 256.289 21.508C257.021 22.192 257.387 23.08 257.387 24.172C257.387 24.784 257.201 25.456 256.829 26.188C256.433 26.956 255.731 27.916 254.723 29.068ZM264.895 24.154C266.251 24.154 267.385 24.64 268.297 25.612C269.209 26.572 269.665 27.766 269.665 29.194C269.665 30.61 269.209 31.81 268.297 32.794C267.385 33.766 266.245 34.252 264.877 34.252C264.049 34.252 263.299 34.06 262.627 33.676C261.967 33.292 261.439 32.758 261.043 32.074V34H259.963V20.41H261.043V26.314C261.451 25.63 261.985 25.102 262.645 24.73C263.317 24.346 264.067 24.154 264.895 24.154ZM264.823 33.226C265.915 33.226 266.809 32.842 267.505 32.074C268.213 31.294 268.567 30.334 268.567 29.194C268.567 28.054 268.219 27.1 267.523 26.332C266.815 25.552 265.915 25.162 264.823 25.162C263.707 25.162 262.789 25.552 262.069 26.332C261.361 27.112 261.007 28.054 261.007 29.158C261.007 30.286 261.361 31.252 262.069 32.056C262.789 32.836 263.707 33.226 264.823 33.226ZM272.438 22.858C272.174 22.858 271.952 22.774 271.772 22.606C271.592 22.426 271.502 22.204 271.502 21.94C271.502 21.676 271.592 21.46 271.772 21.292C271.952 21.112 272.174 21.022 272.438 21.022C272.69 21.022 272.906 21.112 273.086 21.292C273.266 21.46 273.356 21.676 273.356 21.94C273.356 22.204 273.266 22.426 273.086 22.606C272.906 22.774 272.69 22.858 272.438 22.858ZM272.942 24.37V34H271.862V24.37H272.942ZM281.431 32.56L281.881 33.388C281.185 33.94 280.333 34.216 279.325 34.216C278.377 34.216 277.657 33.922 277.165 33.334C276.673 32.746 276.427 31.918 276.427 30.85V25.324H274.717V24.37H276.445V20.968H277.507V24.37H281.467V25.324H277.507V30.886C277.507 32.446 278.143 33.226 279.415 33.226C280.159 33.226 280.831 33.004 281.431 32.56Z" fill="white"/>
<path d="M311.951 34.162C310.451 34.162 309.299 33.562 308.495 32.362C307.691 31.162 307.289 29.62 307.289 27.736C307.289 26.8 307.391 25.906 307.595 25.054C307.811 24.202 308.123 23.434 308.531 22.75C308.951 22.054 309.503 21.502 310.187 21.094C310.871 20.674 311.645 20.464 312.509 20.464C313.769 20.464 314.837 20.83 315.713 21.562L315.209 22.39C314.441 21.766 313.559 21.454 312.563 21.454C311.819 21.454 311.153 21.658 310.565 22.066C309.977 22.474 309.521 23.026 309.197 23.722C308.573 25.066 308.297 26.536 308.369 28.132H308.423C308.627 27.364 309.077 26.716 309.773 26.188C310.469 25.672 311.261 25.414 312.149 25.414C313.325 25.414 314.309 25.822 315.101 26.638C315.893 27.454 316.289 28.486 316.289 29.734C316.289 30.994 315.881 32.05 315.065 32.902C314.261 33.742 313.223 34.162 311.951 34.162ZM312.023 33.154C312.911 33.154 313.661 32.83 314.273 32.182C314.897 31.522 315.209 30.706 315.209 29.734C315.209 28.786 314.903 27.994 314.291 27.358C313.691 26.722 312.941 26.404 312.041 26.404C311.141 26.404 310.361 26.734 309.701 27.394C309.053 28.042 308.729 28.828 308.729 29.752C308.729 30.652 309.047 31.45 309.683 32.146C310.319 32.818 311.099 33.154 312.023 33.154ZM325.048 29.446H326.542V30.454H325.048V34H323.95V30.454H317.524L317.344 29.77L324.382 20.698H325.048V29.446ZM323.95 22.876L318.838 29.446H323.95V22.876ZM333.677 24.154C335.033 24.154 336.167 24.64 337.079 25.612C337.991 26.572 338.447 27.766 338.447 29.194C338.447 30.61 337.991 31.81 337.079 32.794C336.167 33.766 335.027 34.252 333.659 34.252C332.831 34.252 332.081 34.06 331.409 33.676C330.749 33.292 330.221 32.758 329.825 32.074V34H328.745V20.41H329.825V26.314C330.233 25.63 330.767 25.102 331.427 24.73C332.099 24.346 332.849 24.154 333.677 24.154ZM333.605 33.226C334.697 33.226 335.591 32.842 336.287 32.074C336.995 31.294 337.349 30.334 337.349 29.194C337.349 28.054 337.001 27.1 336.305 26.332C335.597 25.552 334.697 25.162 333.605 25.162C332.489 25.162 331.571 25.552 330.851 26.332C330.143 27.112 329.789 28.054 329.789 29.158C329.789 30.286 330.143 31.252 330.851 32.056C331.571 32.836 332.489 33.226 333.605 33.226ZM341.22 22.858C340.956 22.858 340.734 22.774 340.554 22.606C340.374 22.426 340.284 22.204 340.284 21.94C340.284 21.676 340.374 21.46 340.554 21.292C340.734 21.112 340.956 21.022 341.22 21.022C341.472 21.022 341.688 21.112 341.868 21.292C342.048 21.46 342.138 21.676 342.138 21.94C342.138 22.204 342.048 22.426 341.868 22.606C341.688 22.774 341.472 22.858 341.22 22.858ZM341.724 24.37V34H340.644V24.37H341.724ZM350.214 32.56L350.664 33.388C349.968 33.94 349.116 34.216 348.108 34.216C347.16 34.216 346.44 33.922 345.948 33.334C345.456 32.746 345.21 31.918 345.21 30.85V25.324H343.5V24.37H345.228V20.968H346.29V24.37H350.25V25.324H346.29V30.886C346.29 32.446 346.926 33.226 348.198 33.226C348.942 33.226 349.614 33.004 350.214 32.56Z" fill="white"/>
<path d="M39.2109 16.3684L55.0004 14V28.0527H39.2109V16.3684Z" fill="#90C300"/>
<path d="M25 18.4211L37.1052 16.6316V28.2105H25V18.4211Z" fill="#F8672C"/>
<path d="M39.2109 41.6316L55.0004 44V30.3158H39.2109V41.6316Z" fill="#FFC400"/>
<path d="M25 39.5789L37.1052 41.3684V30.3158H25V39.5789Z" fill="#00B4F2"/>
</svg>
