<svg width="21" height="20" viewBox="0 0 21 20" fill="none" xmlns="http://www.w3.org/2000/svg">
<path d="M9.01221 8.08447L12.1319 10.0003L9.01221 11.9174V8.08447Z" fill="#848484"/>
<path d="M10.2085 0C8.23068 0 6.29729 0.58649 4.6528 1.6853C3.00831 2.78412 1.72658 4.3459 0.969705 6.17316C0.212829 8.00042 0.0147956 10.0111 0.400648 11.9509C0.7865 13.8907 1.73891 15.6725 3.13743 17.0711C4.53596 18.4696 6.31779 19.422 8.2576 19.8078C10.1974 20.1937 12.2081 19.9957 14.0353 19.2388C15.8626 18.4819 17.4244 17.2002 18.5232 15.5557C19.622 13.9112 20.2085 11.9778 20.2085 10C20.2085 7.34783 19.1549 4.80429 17.2796 2.92893C15.4042 1.05357 12.8607 0 10.2085 0ZM14.9743 12.4066C14.7743 13.021 14.1124 13.3947 13.5032 13.4803C11.3129 13.7132 9.10408 13.7132 6.91376 13.4803C6.30455 13.3947 5.64271 13.021 5.44271 12.4066C5.13088 10.8178 5.13088 9.18353 5.44271 7.59473C5.64271 6.97368 6.30455 6.60658 6.91902 6.52105C9.10934 6.28815 11.3182 6.28815 13.5085 6.52105C14.1177 6.60658 14.7795 6.97895 14.9795 7.59473C15.2896 9.18387 15.2879 10.8181 14.9743 12.4066Z" fill="#848484"/>
</svg>
