<svg width="49" height="50" viewBox="0 0 49 50" fill="none" xmlns="http://www.w3.org/2000/svg">
<g clip-path="url(#clip0_422_1721)">
<path d="M48.6207 25C48.6207 37.1343 39.7303 47.1918 28.1088 49.0151V32.0273H33.7733L34.8512 25H28.1088V20.44C28.1088 18.517 29.0509 16.6434 32.0707 16.6434H35.136V10.6607C35.136 10.6607 32.3536 10.1859 29.6938 10.1859C24.1413 10.1859 20.5119 13.5514 20.5119 19.6442V25H14.3393V32.0273H20.5119V49.0151C8.89037 47.1918 0 37.1343 0 25C0 11.5743 10.8846 0.689697 24.3103 0.689697C37.7361 0.689697 48.6207 11.5743 48.6207 25Z" fill="#1877F2"/>
<path d="M33.7739 32.0272L34.8517 25H28.1094V20.4398C28.1094 18.5173 29.0512 16.6433 32.0711 16.6433H35.1366V10.6607C35.1366 10.6607 32.3546 10.1859 29.6948 10.1859C24.1418 10.1859 20.5124 13.5514 20.5124 19.6442V25H14.3398V32.0272H20.5124V49.0149C21.7501 49.2091 23.0186 49.3104 24.3109 49.3104C25.6031 49.3104 26.8716 49.2091 28.1094 49.0149V32.0272H33.7739Z" fill="white"/>
</g>
<defs>
<clipPath id="clip0_422_1721">
<rect width="48.6207" height="48.6207" fill="white" transform="translate(0 0.689697)"/>
</clipPath>
</defs>
</svg>
