<svg width="50" height="50" viewBox="0 0 50 50" fill="none" xmlns="http://www.w3.org/2000/svg">
<g clip-path="url(#clip0_422_1725)">
<path d="M49.2675 14.9771C49.1492 12.3893 48.7382 10.6222 48.1372 9.07605C47.527 7.45391 46.57 5.98459 45.3332 4.77011C44.1191 3.53337 42.6494 2.57596 41.0273 1.96538C39.4808 1.36482 37.714 0.954182 35.1263 0.836592C32.5337 0.717889 31.7054 0.689697 25.1033 0.689697C18.5012 0.689697 17.6729 0.717889 15.0803 0.83585C12.4926 0.954182 10.7258 1.36519 9.17933 1.96612C7.55718 2.57633 6.08786 3.53337 4.87338 4.77011C3.63664 5.98422 2.67923 7.45353 2.06865 9.07568C1.46809 10.6222 1.05745 12.3893 0.939864 14.9767C0.821161 17.5696 0.792969 18.3976 0.792969 24.9997C0.792969 31.6021 0.821161 32.4305 0.939864 35.023C1.05782 37.6104 1.46883 39.3776 2.06977 40.924C2.67997 42.5458 3.63702 44.0155 4.87375 45.2296C6.08786 46.4663 7.55755 47.4234 9.1797 48.0336C10.7258 48.6349 12.493 49.0455 15.0807 49.1639C17.6736 49.2822 18.5016 49.31 25.1037 49.31C31.7058 49.31 32.5341 49.2822 35.1267 49.1639C37.7144 49.0455 39.4812 48.6349 41.0277 48.0336C44.2931 46.7709 46.8745 44.1895 48.1372 40.924C48.7385 39.3776 49.1492 37.6104 49.2675 35.023C49.3855 32.4301 49.4137 31.6021 49.4137 25C49.4137 18.3976 49.3855 17.5696 49.2675 14.9771ZM44.8914 34.8238C44.7835 37.1942 44.3873 38.4813 44.0546 39.3379C43.2367 41.4582 41.5611 43.1338 39.4408 43.9517C38.5842 44.2844 37.2971 44.6806 34.9267 44.7886C32.3638 44.9058 31.5949 44.9303 25.1033 44.9303C18.6114 44.9303 17.8428 44.9058 15.2795 44.7886C12.9096 44.6806 11.6224 44.2844 10.7655 43.9517C9.70978 43.5618 8.75459 42.9405 7.97041 42.1329C7.16286 41.3488 6.54153 40.3939 6.15166 39.3379C5.81892 38.4813 5.42275 37.1942 5.31481 34.8238C5.19796 32.2606 5.1731 31.4916 5.1731 25.0004C5.1731 18.5089 5.19796 17.7402 5.31481 15.1766C5.42312 12.8063 5.81892 11.5191 6.15166 10.6626C6.54153 9.60651 7.16323 8.65132 7.97041 7.86714C8.75459 7.05959 9.70978 6.43825 10.7659 6.04876C11.6224 5.71565 12.9096 5.31985 15.2799 5.21153C17.8431 5.09469 18.6121 5.06983 25.1033 5.06983H25.1029C31.5941 5.06983 32.3631 5.09469 34.9267 5.21191C37.2971 5.31985 38.5839 5.71602 39.4408 6.04876C40.4965 6.43862 41.4517 7.05996 42.2358 7.86714C43.0434 8.65132 43.6647 9.60651 44.0542 10.6626C44.3873 11.5191 44.7835 12.8063 44.8914 15.1766C45.0083 17.7399 45.0332 18.5089 45.0332 25C45.0332 31.4916 45.0087 32.2602 44.8914 34.8238Z" fill="url(#paint0_linear_422_1725)"/>
<path d="M25.1026 12.5162C18.2082 12.5162 12.6191 18.1057 12.6191 25.0001C12.6191 31.8945 18.2082 37.4835 25.1026 37.4835C31.9974 37.4835 37.5864 31.8945 37.5864 25.0001C37.5864 18.1057 31.9974 12.5162 25.1026 12.5162ZM25.1026 33.1034C20.6275 33.103 16.9993 29.4752 16.9996 24.9997C16.9996 20.5246 20.6275 16.8964 25.103 16.8964C29.5784 16.8967 33.2063 20.5246 33.2063 24.9997C33.2063 29.4752 29.5781 33.1034 25.1026 33.1034Z" fill="url(#paint1_linear_422_1725)"/>
<path d="M40.9967 12.0232C40.9967 13.6342 39.6906 14.9403 38.0796 14.9403C36.4682 14.9403 35.1621 13.6342 35.1621 12.0232C35.1621 10.4118 36.4682 9.10571 38.0796 9.10571C39.6906 9.10571 40.9967 10.4118 40.9967 12.0232Z" fill="url(#paint2_linear_422_1725)"/>
</g>
<defs>
<linearGradient id="paint0_linear_422_1725" x1="4.87313" y1="45.2298" x2="45.3335" y2="4.76947" gradientUnits="userSpaceOnUse">
<stop stop-color="#FFD600"/>
<stop offset="0.5" stop-color="#FF0100"/>
<stop offset="1" stop-color="#D800B9"/>
</linearGradient>
<linearGradient id="paint1_linear_422_1725" x1="16.2756" y1="33.8272" x2="33.9301" y2="16.1726" gradientUnits="userSpaceOnUse">
<stop stop-color="#FF6400"/>
<stop offset="0.5" stop-color="#FF0100"/>
<stop offset="1" stop-color="#FD0056"/>
</linearGradient>
<linearGradient id="paint2_linear_422_1725" x1="36.0167" y1="14.0858" x2="40.1422" y2="9.96028" gradientUnits="userSpaceOnUse">
<stop stop-color="#F30072"/>
<stop offset="1" stop-color="#E50097"/>
</linearGradient>
<clipPath id="clip0_422_1725">
<rect width="48.6207" height="48.6207" fill="white" transform="translate(0.792969 0.689697)"/>
</clipPath>
</defs>
</svg>
