<svg width="76" height="75" viewBox="0 0 76 75" fill="none" xmlns="http://www.w3.org/2000/svg">
<circle cx="37.709" cy="37.5" r="37.5" fill="#FFDEDB"/>
<path d="M50.834 24H24.584V50.25H50.834V24Z" fill="#ECEFF1"/>
<path d="M37.709 39.8856L50.834 50.25V29.7881L37.709 39.8856Z" fill="#CFD8DC"/>
<path d="M51.9277 24H50.834L37.709 34.3644L24.584 24H23.4902C21.679 24 20.209 25.47 20.209 27.2812V46.9688C20.209 48.78 21.679 50.25 23.4902 50.25H24.584V29.7881L37.709 39.8834L50.834 29.7859V50.25H51.9277C53.739 50.25 55.209 48.78 55.209 46.9688V27.2812C55.209 25.47 53.739 24 51.9277 24Z" fill="#F44336"/>
</svg>
