<svg width="76" height="75" viewBox="0 0 76 75" fill="none" xmlns="http://www.w3.org/2000/svg">
<circle cx="37.709" cy="37.5" r="37.5" fill="#C4FFBF"/>
<path d="M41.8145 42.9209C41.4248 42.9004 41.0557 43.0645 40.8507 43.3927L37.5898 48.4785L34.329 43.3927C34.124 43.0645 33.7549 42.88 33.3652 42.9209C26.5771 43.6388 22.209 45.9561 22.209 48.8477C22.209 52.8467 30.125 55 37.5898 55C45.0547 55 52.9707 52.8467 52.9707 48.8477C52.9707 45.9561 48.6025 43.6388 41.8145 42.9209Z" fill="#61DE56"/>
<path d="M52.9707 48.8477C52.9707 52.8467 45.0547 55 37.5898 55V48.4785L40.8507 43.3927C41.0557 43.0645 41.4248 42.9003 41.8145 42.9209C48.6025 43.6388 52.9707 45.9561 52.9707 48.8477Z" fill="#13C37B"/>
<path d="M37.5898 20C31.4375 20 26.3105 24.9628 26.3105 31.2793C26.3105 33.6786 27.0283 35.832 28.4229 37.8418L36.7286 50.9395C36.9336 51.2675 37.2618 51.4111 37.5899 51.4111C37.918 51.4111 38.2462 51.2675 38.4512 50.9395L46.7979 37.8008C48.1514 35.873 48.8691 33.6172 48.8691 31.2793C48.8691 25.0654 43.8038 20 37.5898 20ZM37.5898 36.4062C34.7628 36.4062 32.4629 34.1063 32.4629 31.2793C32.4629 28.4523 34.7628 26.1523 37.5898 26.1523C40.4168 26.1523 42.7168 28.4523 42.7168 31.2793C42.7168 34.1063 40.4168 36.4062 37.5898 36.4062Z" fill="#FD3018"/>
<path d="M37.5898 20V26.1523C40.4168 26.1523 42.7168 28.4523 42.7168 31.2793C42.7168 34.1063 40.4168 36.4062 37.5898 36.4062V51.4111C37.9179 51.4111 38.2461 51.2676 38.4511 50.9395L46.7979 37.8008C48.1514 35.873 48.8691 33.6172 48.8691 31.2793C48.8691 25.0654 43.8038 20 37.5898 20Z" fill="#E61E14"/>
</svg>
