<svg width="76" height="75" viewBox="0 0 76 75" fill="none" xmlns="http://www.w3.org/2000/svg">
<circle cx="37.709" cy="37.5" r="37.5" fill="#FFF2BF"/>
<path d="M47.9629 22H43.8613H39.7598C35.8024 22 32.5137 25.2203 32.5137 29.1777C32.5137 32.7877 35.2607 35.7837 38.7344 36.2824V39.4316C38.7344 39.8462 38.9837 40.2207 39.3672 40.3789C39.7455 40.5367 40.1891 40.4521 40.4848 40.1566L43.8613 36.78L44.2859 36.3555H47.9629C51.9203 36.3555 55.209 33.1351 55.209 29.1777C55.209 25.2203 51.9203 22 47.9629 22Z" fill="#FED843"/>
<path d="M47.9629 36.3555C51.9203 36.3555 55.209 33.1351 55.209 29.1777C55.209 25.2203 51.9203 22 47.9629 22H43.8613V36.78L44.2859 36.3555H47.9629Z" fill="#FABE2C"/>
<path d="M46.3223 45.584V49.6855C46.3223 51.4697 44.8655 52.7617 43.2604 52.7617C37.3535 52.7617 31.5908 49.9692 27.3047 45.7002C23.0186 41.4312 20.209 35.6855 20.209 29.7786C20.209 28.0819 21.5892 26.7168 23.2852 26.7168H27.3867C27.8283 26.7168 28.22 26.9991 28.3588 27.4175L30.4096 33.5555C30.5101 33.8562 30.4656 34.1857 30.2906 34.4489L28.5516 37.0582C29.2105 38.4404 30.3768 39.9512 31.7234 41.2814C33.0708 42.611 34.5986 43.7602 35.9809 44.4191L38.5901 42.6801C38.8547 42.5058 39.1828 42.46 39.4836 42.5611L45.6359 44.6119C46.0543 44.7507 46.3223 45.1424 46.3223 45.584Z" fill="#FF641A"/>
<path d="M46.3223 45.584V49.6856C46.3223 51.4698 44.8655 52.7618 43.2604 52.7618C37.3535 52.7618 31.5908 49.9693 27.3047 45.7002L31.7234 41.2815C33.0708 42.6111 34.5986 43.7602 35.9809 44.4192L38.5901 42.6801C38.8547 42.5058 39.1828 42.46 39.4836 42.5612L45.6359 44.612C46.0543 44.7507 46.3223 45.1424 46.3223 45.584Z" fill="#F03800"/>
<path d="M39.7598 30.203C40.3261 30.203 40.7852 29.7439 40.7852 29.1776C40.7852 28.6113 40.3261 28.1522 39.7598 28.1522C39.1935 28.1522 38.7344 28.6113 38.7344 29.1776C38.7344 29.7439 39.1935 30.203 39.7598 30.203Z" fill="#613D5C"/>
<path d="M43.8613 30.203C44.4276 30.203 44.8867 29.7439 44.8867 29.1776C44.8867 28.6113 44.4276 28.1522 43.8613 28.1522C43.295 28.1522 42.8359 28.6113 42.8359 29.1776C42.8359 29.7439 43.295 30.203 43.8613 30.203Z" fill="#613D5C"/>
<path d="M44.8867 29.1776C44.8867 28.6113 44.4276 28.1522 43.8613 28.1522V30.203C44.4276 30.203 44.8867 29.7439 44.8867 29.1776Z" fill="#4B2746"/>
<path d="M47.9629 30.203C48.5292 30.203 48.9883 29.7439 48.9883 29.1776C48.9883 28.6113 48.5292 28.1522 47.9629 28.1522C47.3966 28.1522 46.9375 28.6113 46.9375 29.1776C46.9375 29.7439 47.3966 30.203 47.9629 30.203Z" fill="#4B2746"/>
</svg>
